<?xml version="1.0" encoding="utf-8"?>
<!-- Generator: Adobe Illustrator 23.1.0, SVG Export Plug-In . SVG Version: 6.00 Build 0)  -->
<svg version="1.1" id="logo" xmlns="http://www.w3.org/2000/svg" xmlns:xlink="http://www.w3.org/1999/xlink" x="0px" y="0px"
	 viewBox="0 0 304 288" enable-background="new 0 0 304 288" xml:space="preserve">
<g>
	<g>
		<defs>
			<rect id="SVGID_1_" x="-113" y="-23.9" width="509.9" height="362.9"/>
		</defs>
		<clipPath id="SVGID_2_">
			<use xlink:href="#SVGID_1_"  overflow="visible"/>
		</clipPath>
		<g clip-path="url(#SVGID_2_)">
			<path fill="#58595B" d="M267.2,149.8c0,57.1-50.4,103.4-112.6,103.4S42,206.9,42,149.8S92.5,46.4,154.7,46.4
				C216.8,46.4,267.2,92.7,267.2,149.8"/>
			<path fill="#58595B" d="M104.6,163.4c3.9,25.3-13.5,49-38.8,52.9s-49-13.5-52.9-38.8s13.5-49,38.8-52.9
				C77.1,120.8,100.7,138.1,104.6,163.4"/>
			<path fill="#58595B" d="M290.8,117.3c3.9,25.3-13.5,49-38.8,52.9c-25.3,3.9-49-13.5-52.9-38.8s13.5-49,38.8-52.9
				S287,92,290.8,117.3"/>
		</g>
	</g>
	<g>
		<defs>
			<rect id="SVGID_3_" x="-113" y="-23.9" width="509.9" height="362.9"/>
		</defs>
		<clipPath id="SVGID_4_">
			<use xlink:href="#SVGID_3_"  overflow="visible"/>
		</clipPath>
		<g id="el" clip-path="url(#SVGID_4_)">
			<path fill="#FDB933" d="M260.5,240.1c0,24.2-19.6,43.9-43.9,43.9c-24.2,0-43.9-19.6-43.9-43.9c0-24.2,19.6-43.9,43.9-43.9
				C240.9,196.2,260.5,215.8,260.5,240.1"/>
			<g>
				<circle fill="none" stroke="#FFFFFF" stroke-width="5.076" stroke-miterlimit="10" cx="216.6" cy="240.1" r="43.9"/>
				<polygon points="216.6,268.9 216.6,245.4 200,245.4 216.6,211.2 216.6,234.7 233.2,234.7 				"/>
				<path d="M220.3,268.9v-7.5V249v-3.6c0-2-1.7-3.7-3.7-3.7h-9.2H200c1.1,1.9,2.1,3.7,3.2,5.6c0.8-1.6,1.5-3.2,2.3-4.7l5.2-10.7
					c1.9-3.8,3.7-7.6,5.5-11.4l3.4-6.9c0.1-0.1,0.1-0.3,0.2-0.4c-2.3-0.6-4.6-1.3-7-1.9v7.5v12.5v3.6c0,2,1.7,3.7,3.7,3.7h9.1h7.5
					c-1.1-1.9-2.2-3.7-3.2-5.6c-0.8,1.6-1.5,3.2-2.3,4.7c-1.7,3.6-3.5,7.1-5.2,10.7c-1.9,3.8-3.7,7.6-5.6,11.4
					c-1.1,2.3-2.2,4.6-3.4,6.9c-0.1,0.1-0.1,0.3-0.2,0.4c-0.5,0.9-0.7,1.9-0.4,2.9c0.3,0.9,0.9,1.7,1.7,2.2c0.9,0.5,1.9,0.6,2.9,0.4
					c0.9-0.2,1.8-0.9,2.2-1.7c0.8-1.6,1.5-3.2,2.3-4.7c1.7-3.6,3.5-7.1,5.2-10.7c1.9-3.8,3.7-7.6,5.6-11.4c1.1-2.3,2.2-4.6,3.4-6.9
					c0.1-0.1,0.1-0.3,0.2-0.4c0.3-0.6,0.5-1.2,0.5-1.9s-0.2-1.3-0.5-1.9c-0.7-1.1-1.9-1.8-3.2-1.8H224h-7.5c1.2,1.2,2.5,2.5,3.7,3.7
					v-7.5v-12.5v-3.6c0-1.7-1.1-3.2-2.7-3.6c-0.7-0.2-1.3-0.2-2,0c-0.9,0.2-1.8,0.9-2.2,1.7c-0.8,1.6-1.5,3.2-2.3,4.7l-5.2,10.7
					c-1.9,3.8-3.7,7.6-5.6,11.4l-3.4,6.9c-0.1,0.1-0.1,0.3-0.2,0.4c-0.3,0.6-0.5,1.2-0.5,1.9s0.2,1.3,0.5,1.9
					c0.7,1.1,1.9,1.8,3.2,1.8h9.2h7.4c-1.2-1.2-2.5-2.5-3.7-3.7v7.5v12.5v3.6c0,2,1.7,3.7,3.7,3.7
					C218.6,272.7,220.3,271,220.3,268.9"/>
			</g>
		</g>
	</g>
	<g>
		<defs>
			<rect id="SVGID_5_" x="-113" y="-23.9" width="509.9" height="362.9"/>
		</defs>
		<clipPath id="SVGID_6_">
			<use xlink:href="#SVGID_5_"  overflow="visible"/>
		</clipPath>
		<g id="tekst" clip-path="url(#SVGID_6_)">
			<path fill="#FFFFFF" d="M236.7,134.8c-0.3-1.1-0.5-2-0.8-3.2c-0.1-0.3-0.5-0.6-0.5-0.9c-0.2-0.6-0.1-1.4-0.2-2.1
				c-0.3-1.2-1-2.3-0.9-3.6c0.5-1.2,2.8-1.2,4.5-1.6c2.1-0.5,3.8-1.5,5.9-1.5c3.4,0,6.3,2,8,4.6c0.9,1.6,2.2,5.1,2.4,7.3
				c0,0.5-0.2,1.1-0.2,1.7c-0.2,1.6-0.1,2.2-0.9,3.7c-0.5,0.9-0.7,1.5-1.3,2.1c-2.2,2.4-5.8,2.5-9.7,3.6c-1.1,0.3-2.1,1.1-3.3,0.7
				C238.1,142.2,237.6,138.4,236.7,134.8 M237.7,128.8c-0.3,0.2,0,0.7,0.4,0.5C238,129,238,128.7,237.7,128.8 M238.2,130.5
				c-0.1,0-0.1,0-0.3,0c0.1,0.3-0.2,0.3,0,0.6C238.2,131,238.3,130.8,238.2,130.5 M238.5,133c0.1-0.1-0.1-0.6-0.3-0.6
				c-0.1,0.2-0.2,0.3-0.1,0.6C238.2,133,238.3,133.1,238.5,133 M238.6,132c0.3-0.1,0.5,0,0.5-0.3c-0.2,0-0.3-0.3-0.6-0.1L238.6,132z
				 M239.4,134c-0.2-0.3,0-0.5-0.1-0.8l-0.4,0.1c0.1,0.3,0,0.4-0.3,0.5C238.6,134.3,239,134.1,239.4,134 M239.3,135.8
				c-0.2-0.1-0.4,0-0.6,0c0,0.2,0.1,0.4,0.2,0.6C239.3,136.3,239.3,136,239.3,135.8 M239.9,135.6c0.1,0.2-0.1,0.3-0.1,0.5
				c0.1,0.3,0.1,0.3,0.3,0.4c0.3-0.1,0.2-0.3,0.3-0.4h0.1h0.1c0,0,0-0.3,0-0.4h0.1c0.1-0.1-0.1-0.3,0-0.4c-0.1,0.1-0.1-0.1-0.1-0.1
				c-0.2-0.2-0.4-0.1-0.5-0.3c-0.4-0.2-0.6-0.5-1.2-0.3c0,0.4,0.3,0.2,0.3,0.6C239.6,135.1,239.7,135.2,239.9,135.6 M239.7,137.7
				c0.2,0.1,0.4,0.2,0.5,0.2c0.5,0,0.8-0.1,0.6-0.7l-0.8,0.2c-0.2-0.2-0.6-0.1-0.7-0.4c-0.2,0-0.3,0.1-0.2,0.1
				c0.2,0.1,0.1,0.2,0.3,0.4C239.4,137.7,239.5,137.6,239.7,137.7 M240,133.2c0-0.4-0.4-0.6-0.6-0.3
				C239.4,133.3,239.7,133.3,240,133.2 M240.3,138.9c0-0.4-0.7-0.2-0.5,0.1C239.9,139.1,240.2,138.8,240.3,138.9 M240.4,134.3
				l-0.1-0.4c-0.4,0-0.4,0.3-0.4,0.6C240.1,134.5,240.3,134.4,240.4,134.3 M240.6,140.9c-0.3,0.1-0.1-0.4-0.4-0.2
				c0,0.2-0.1,0.2,0,0.4C240.3,141,240.7,141,240.6,140.9 M240.8,128.2c-0.1,1.4,0.3,3.1,0.8,4.9c0.6,2.4,1.3,5.1,2.1,6.4
				c7.5,0.9,6.6-8.2,3-11.8C245.1,126.9,242.4,127.1,240.8,128.2 M240.9,139.4c-0.1,0.2-0.2,0.7,0.2,0.6
				C241.3,139.8,241.3,139.1,240.9,139.4 M243.6,141.1c0,0.1,0.1,0.3,0.2,0.1c0-0.4-0.6-0.1-0.9-0.2c0.1,0.1,0.1,0.2,0.3,0.4
				C243.4,141.2,243.3,141.1,243.6,141.1 M245,124.9c0-0.1-0.1-0.2-0.2-0.3c-0.3,0-0.5,0.3-0.4,0.5C244.7,125.2,244.9,125,245,124.9
				 M245.8,124.3c-0.1-0.1-0.4,0.1-0.3,0.3C245.6,124.7,246,124.5,245.8,124.3 M246.9,124.3c0.1-0.1,0.3-0.2,0.1-0.3
				c-0.3,0.1-0.5,0.3-0.3,0.6C247,124.7,246.9,124.5,246.9,124.3 M247.6,125.2c-0.1,0.1-0.1,0.1-0.3,0.1c0.2,0.3-0.2,0.4,0,0.7
				C247.7,125.7,247.9,125.5,247.6,125.2 M248.1,126.1c-0.1,0.1-0.3,0.2-0.4,0.3c0.1,0.3,0.3,0.4,0.5,0.5
				C247.9,126.7,248.4,126.5,248.1,126.1 M248.9,141.2c-0.2-0.1-0.4,0-0.6,0c0,0.2,0.1,0.4,0.2,0.6
				C248.9,141.8,248.8,141.5,248.9,141.2 M249.6,125.6c-0.2,0-0.2-0.1-0.5,0c0.1,0.3,0.1,0.5,0.2,0.8
				C249.6,126.3,249.5,125.9,249.6,125.6 M249.3,127.8c-0.1,0.2-0.1,0.4,0.2,0.2C249.5,127.8,249.4,127.8,249.3,127.8 M249.7,140
				c0.2,0.1,0.2-0.3,0.3-0.4c0.2,0.2,0.2,0.1,0.3,0.4c0.5-0.3-0.2-0.7-0.4-0.9c-0.1,0-0.1,0.1-0.2,0.1
				C249.9,139.5,249.5,139.8,249.7,140 M250.2,127.3c-0.1,0.2-0.2,0.3,0,0.4C250.6,127.7,250.5,127.2,250.2,127.3 M250.5,138.2
				c0.1,0.1,0.1,0.4,0.3,0.2C250.8,138.2,250.7,138.2,250.5,138.2 M251.4,139.2c-0.1,0.1-0.3-0.1-0.4,0.1c0.1,0.2,0.2,0.3,0.4,0.3
				C251.4,139.4,251.4,139.3,251.4,139.2 M251.3,136.4c-0.1,0.1-0.1,0-0.2,0.2c0.2,0.2,0.3,0.4,0.5,0.3
				C251.5,136.7,251.4,136.6,251.3,136.4 M252,138.4c0-0.2,0.2-0.4,0.1-0.6c-0.3,0-0.5,0.1-0.7,0.3c0.1,0.3,0.3,0.1,0.3,0.2
				C251.8,138.3,251.8,138.4,252,138.4 M252.4,135c-0.4-0.2-0.7,0.2-0.5,0.6C252.2,135.4,252.6,135.3,252.4,135"/>
			<path fill="#FFFFFF" d="M272.9,119.8c-1.8,0.8-3.6,1.3-6,1.9c-1,0.2-2.1,0.2-2.7,0.5c-1.1,0.7-1.3,2.4-0.1,3.7
				c1.9,0.2,5-1.6,7.1-1.3c0.9,1,0.9,3,1.2,4c-1.7,1.6-5.9,1.1-7.2,2.8c0,0.8,0.4,1.7,0.8,2.4c0.7,0.1,1.6,0.3,2.6,0
				c0.4-0.1,0.7-0.5,1.2-0.7c1-0.2,2.2-0.2,3.4-0.5c1.4-0.4,2.2-1.1,3-0.4c0.9,0.6,0.9,2.7,1.1,4.2c-0.8,1-2.3,0.8-3.5,1.1
				c-0.6,0.2-1.2,0.6-1.8,0.8c-1.8,0.5-3.8,0.5-5.6,1.1c-1.6,0.5-3.1,1.6-4.6,0.8c-1.3-6.9-3.9-13.7-4.9-20.8
				c0.1-0.3,0.2-0.5,0.4-0.6c5-0.9,9.7-2.7,14.6-3.5C272.8,116.1,273,118.5,272.9,119.8 M260.3,122.1c-0.1,0.1-0.1,0.1-0.3,0.1
				c0.2,0.3-0.2,0.4,0,0.7C260.4,122.6,260.6,122.4,260.3,122.1 M260.2,121.3c0.2,0,0.4,0.1,0.6,0c-0.1-0.3-0.2-0.5-0.4-0.7
				c-0.2,0.2,0,0.3-0.2,0.4C260.3,121.1,260.2,121.2,260.2,121.3 M260.8,123c-0.1,0.1-0.3,0.2-0.4,0.3c0.1,0.3,0.3,0.4,0.5,0.5
				C260.6,123.5,261.1,123.3,260.8,123 M261,124.9c-0.4-0.2-0.7,0.2-0.5,0.6C260.9,125.4,261.2,125.2,261,124.9 M261.2,127.1
				c0.3,0,0.3-0.3,0.5-0.5c0.2,0.2,0.3,0.1,0.4,0.5c0.7-0.5-0.2-1-0.5-1.2c-0.1,0.1-0.2,0.1-0.3,0.2
				C261.4,126.4,260.9,126.7,261.2,127.1 M261.9,127.9c0,0.1,0.1,0.3,0.2,0.1c0-0.4-0.6-0.1-0.9-0.2c0.1,0.1,0.1,0.2,0.3,0.4
				C261.6,128.1,261.6,128,261.9,127.9 M262.1,120.4c-0.1-0.1-0.1-0.1-0.2-0.2c-0.1,0.2-0.4,0.4-0.2,0.5
				C261.8,120.6,261.9,120.5,262.1,120.4 M262,130c-0.1,0-0.2-0.1-0.3,0.1c0.1,0.3,0.3,0.1,0.5,0.2c-0.2,0.2,0.2,0.3,0.1,0.3
				c-0.1,0.2-0.3,0.1-0.5,0.2c0.3,0.5,0.8,0.1,1.2,0c-0.2-0.1,0.1-0.2-0.1-0.5c0.1,0,0.1-0.1,0.1-0.1c-0.1,0-0.2,0.1-0.3,0
				c0.1-0.2-0.1-0.2-0.2-0.3c-0.1-0.3,0-0.5-0.1-0.7c-0.2,0.1-0.5,0-0.6,0.2c0.2,0,0.3,0.1,0.3,0.2C262.1,129.8,262,129.9,262,130
				 M262.1,128.2c0.1,0.1,0.1,0.4,0.3,0.2C262.3,128.2,262.2,128.2,262.1,128.2 M262.7,132.1c-0.1,0.1-0.1,0-0.2,0.2
				c0.2,0.2,0.3,0.4,0.5,0.3C262.9,132.4,262.8,132.2,262.7,132.1 M263,129.2c-0.1,0.1-0.3-0.1-0.4,0.1c0.1,0.2,0.2,0.3,0.4,0.3
				C262.9,129.4,263,129.3,263,129.2 M262.9,128.4c0.1,0.1,0.2,0.3,0.3,0.1c-0.1-0.3-0.4-0.4-0.7-0.2
				C262.6,128.6,262.8,128.5,262.9,128.4 M263.3,134.1c0-0.2,0.2-0.4,0.1-0.6c-0.3,0-0.5,0.1-0.7,0.3c0.1,0.3,0.3,0.1,0.3,0.2
				C263.1,134,263.2,134.1,263.3,134.1 M263.2,137c0.1-0.1,0.3-0.2,0.1-0.3c-0.3,0.1-0.5,0.3-0.3,0.6
				C263.3,137.4,263.2,137.1,263.2,137 M264.6,137.2c-0.3,0-0.4-0.3-0.7-0.1c0.1,0.4,0.1,0.7,0.2,1.1
				C264.6,138.1,264.6,137.6,264.6,137.2 M266.1,137.8c0-0.2,0.2-0.4,0-0.6c-0.3,0.2-0.6,0.2-0.9,0.4
				C265.3,137.9,265.6,137.8,266.1,137.8 M267.3,127.6c0-0.1-0.1-0.2-0.2-0.3c-0.3,0-0.5,0.3-0.4,0.5
				C266.9,127.9,267.2,127.7,267.3,127.6 M268.1,127c-0.1-0.1-0.4,0.1-0.3,0.3C267.9,127.4,268.3,127.2,268.1,127"/>
			<path fill="#FFFFFF" d="M41.3,153.5c-1.2,0.5-2.3,0.9-3.9,1.2c-0.7,0.1-1.4,0.1-1.7,0.3c-0.7,0.4-0.9,1.5-0.1,2.4
				c1.2,0.1,3.3-1,4.7-0.9c0.6,0.6,0.6,2,0.8,2.6c-1.1,1.1-3.8,0.7-4.7,1.8c0,0.5,0.3,1.1,0.5,1.6c0.5,0.1,1.1,0.2,1.7,0
				c0.3-0.1,0.5-0.3,0.8-0.4c0.6-0.2,1.4-0.1,2.2-0.3c0.9-0.3,1.5-0.7,2-0.3c0.6,0.4,0.6,1.7,0.7,2.7c-0.6,0.6-1.5,0.5-2.3,0.7
				c-0.4,0.1-0.8,0.4-1.2,0.5c-1.2,0.3-2.5,0.3-3.7,0.7c-1.1,0.3-2,1-3,0.6c-0.9-4.5-2.6-9-3.2-13.6c0-0.2,0.1-0.3,0.2-0.4
				c3.2-0.6,6.3-1.8,9.6-2.3C41.2,151.1,41.4,152.7,41.3,153.5 M33.1,155c0,0-0.1,0-0.2,0c0.1,0.2-0.1,0.3,0,0.4
				C33.2,155.3,33.3,155.2,33.1,155 M33,154.5c0.1,0,0.3,0.1,0.4,0c0-0.2-0.1-0.3-0.3-0.4c-0.2,0.1,0,0.2-0.1,0.2
				C33.1,154.4,33,154.4,33,154.5 M33.4,155.6c-0.1,0-0.2,0.2-0.3,0.2c0.1,0.2,0.2,0.3,0.3,0.3C33.3,155.9,33.6,155.8,33.4,155.6
				 M33.6,156.9c-0.2-0.1-0.5,0.1-0.3,0.4C33.4,157.1,33.7,157,33.6,156.9 M33.7,158.3c0.2,0,0.2-0.2,0.3-0.3
				c0.1,0.2,0.2,0.1,0.3,0.3c0.4-0.3-0.2-0.6-0.4-0.8c-0.1,0.1-0.1,0.1-0.2,0.1C33.8,157.8,33.5,158,33.7,158.3 M34.1,158.8
				c0,0.1,0.1,0.2,0.1,0.1c0-0.3-0.4-0.1-0.6-0.1c0,0.1,0.1,0.2,0.2,0.3C34,158.9,33.9,158.9,34.1,158.8 M34.2,153.9
				c0-0.1,0-0.1-0.1-0.1c-0.1,0.1-0.2,0.2-0.1,0.3C34.1,154,34.1,154,34.2,153.9 M34.2,160.2c-0.1,0-0.1,0-0.2,0.1
				c0.1,0.2,0.2,0.1,0.3,0.2c-0.2,0.1,0.1,0.2,0.1,0.2c0,0.1-0.2,0.1-0.3,0.1c0.2,0.4,0.5,0.1,0.8,0c-0.1-0.1,0-0.1-0.1-0.3
				c0.1,0,0.1,0,0.1-0.1c-0.1,0-0.1,0-0.2,0c0.1-0.1-0.1-0.1-0.1-0.2c0-0.2,0-0.3-0.1-0.5c-0.1,0.1-0.3,0-0.4,0.1
				c0.1,0,0.2,0.1,0.2,0.1C34.2,160,34.2,160.1,34.2,160.2 M34.2,159c0,0.1,0.1,0.3,0.2,0.1C34.4,159,34.3,159,34.2,159 M34.6,161.5
				c-0.1,0-0.1,0-0.1,0.1c0.1,0.1,0.2,0.3,0.3,0.2C34.8,161.7,34.7,161.6,34.6,161.5 M34.8,159.6c-0.1,0-0.2-0.1-0.3,0
				c0.1,0.1,0.2,0.2,0.3,0.2C34.8,159.8,34.8,159.7,34.8,159.6 M34.8,159.1c0.1,0.1,0.1,0.2,0.2,0c-0.1-0.2-0.3-0.3-0.4-0.2
				C34.6,159.3,34.7,159.2,34.8,159.1 M35,162.8c0-0.1,0.1-0.2,0.1-0.4c-0.2,0-0.3,0.1-0.5,0.2c0.1,0.2,0.2,0.1,0.2,0.1
				C34.9,162.8,35,162.8,35,162.8 M35,164.8c0.1-0.1,0.2-0.1,0.1-0.2c-0.2,0.1-0.3,0.2-0.2,0.4C35,165,35,164.8,35,164.8
				 M35.9,164.9c-0.2,0-0.3-0.2-0.4,0c0.1,0.3,0.1,0.5,0.1,0.7C35.9,165.5,35.9,165.1,35.9,164.9 M36.8,165.2c0-0.1,0.1-0.2,0-0.4
				c-0.2,0.1-0.4,0.1-0.6,0.2C36.3,165.3,36.6,165.3,36.8,165.2 M37.7,158.6c0,0-0.1-0.1-0.1-0.2c-0.2,0-0.3,0.2-0.2,0.4
				C37.4,158.8,37.6,158.7,37.7,158.6 M38.2,158.2c-0.1-0.1-0.3,0.1-0.2,0.2C38.1,158.4,38.3,158.4,38.2,158.2"/>
			<path fill="#FFFFFF" d="M54.1,152.6c-0.1-0.5-0.1-1.1-0.3-1.5c-0.2-1-1-2.3-0.8-3.6c0.7-0.6,2.3-0.7,3.2-0.8
				c1,1.9,1.2,4.1,1.7,6.4c0.6,2.4,1.6,4.8,1.7,7.2c-0.7,0.8-1.6,0.5-2.6,1c-1.4-0.4-2.2-1.8-3.3-2.7c-0.5-0.5-1.1-0.9-1.7-1.4
				c-0.5-0.5-1-1.1-1.6-1.3c-0.6,0.5,0,1.3,0.1,1.9c0.4,1.6,1,3.4,1,4.8c-0.9,0.5-2.2,0.6-2.9,0.7c-0.3-0.2-0.3-0.6-0.6-0.7
				c0-1.1-0.5-2.4-0.9-3.8c-0.4-1.4-0.6-2.8-0.9-4.1c-0.1-0.3-0.4-0.6-0.5-1c-0.1-0.2,0.1-0.5,0-0.7c-0.2-1.3-1-2.6-0.8-3.5
				c0-0.1,0.1-0.2,0.2-0.3c1.2,0,1.9-0.7,2.8-0.5c0.5,0.2,1.2,0.9,1.8,1.4s1,1.2,1.7,1.4c0.7,1.1,1.5,1.9,2.6,2.4
				C54.6,153.6,54.2,153.1,54.1,152.6 M47.4,153.6c-0.1,0.1-0.1,0.2-0.2,0.2c-0.1,0.1,0.1,0.1,0.1,0.1c0.1,0.1,0.2,0.2,0.3,0.2
				c0,0.1,0.1,0.2,0.1,0.3c0,0.2-0.3,0.4-0.2,0.7c0.1,0,0.1-0.1,0.2-0.1l0.1,0.1c0.1,0,0.2-0.4,0.3-0.5s0.1-0.1,0.1-0.2
				c0-0.2-0.1-0.1-0.3-0.1c0-0.1-0.1-0.2-0.2-0.2c0-0.1,0-0.2,0.1-0.2C47.7,153.8,47.4,153.9,47.4,153.6 M47.3,152.9
				c-0.2,0,0,0.4,0.1,0.4c0,0.1,0.1,0,0.1,0.1c0.1-0.1-0.1-0.3,0-0.5C47.4,152.9,47.3,153,47.3,152.9 M47.5,152
				c-0.1,0-0.2,0-0.2,0.1C47.3,152.3,47.6,152.2,47.5,152 M47.4,155.3c-0.3,0.2,0.1,0.3,0.2,0.5c0.4-0.1,0.7,0.1,0.9-0.2
				C48.3,155.2,47.6,155.7,47.4,155.3 M48.4,158.1v0.1h0.1h0.1c0,0,0.1,0.2,0.3,0.1C48.7,158.1,48.5,158.1,48.4,158.1 M48.6,157.2
				c-0.4,0-0.2,0.7,0.1,0.4C48.8,157.5,48.6,157.5,48.6,157.2 M48.6,159.1c0.1,0.2,0.2,0.2,0.3,0.4
				C49.2,159.4,48.8,159.1,48.6,159.1 M49,159.9c-0.2,0.1-0.1,0.4,0.2,0.2C49.2,160.1,49,160.1,49,159.9 M49.2,158.8
				c-0.1,0-0.1,0.1-0.2,0.1c0,0.2,0.2,0.1,0.2,0.2C49.4,159,49.3,158.8,49.2,158.8 M49.3,160.9c-0.2,0.1-0.1,0.5,0.2,0.4
				c-0.1-0.2,0.1-0.2,0.1-0.4C49.5,160.8,49.4,161,49.3,160.9 M54.7,150.2c0.1,0.2,0.2,0.3,0.3,0.4
				C55.3,150.4,54.9,150.1,54.7,150.2 M54.9,151.5L54.9,151.5c-0.1,0.1-0.1,0.3,0,0.3C55.1,151.8,54.9,151.6,54.9,151.5 M55.2,149.8
				c0.1,0.1,0.1,0.1,0.3,0.1c0-0.1,0-0.1,0-0.2C55.3,149.6,55.2,149.7,55.2,149.8 M55.5,152.6l-0.2,0.1c0.2,0.1,0,0.6,0.3,0.4
				L55.5,152.6z M55.4,151.5c-0.2,0.1,0.1,0.3-0.1,0.4c0.1,0.1,0.3,0,0.3-0.1C55.6,151.6,55.5,151.6,55.4,151.5 M55.3,152.3
				c0,0.1,0.2,0,0.3,0.1C55.8,152.3,55.4,152.1,55.3,152.3 M55.7,150.9l-0.3,0.1c0.1,0.2,0.2,0.2,0.3,0.3
				C55.7,151.2,55.7,151.1,55.7,150.9 M56.1,152.4C56,152.4,56.1,152.5,56.1,152.4c-0.1,0.2-0.2,0.3-0.1,0.5c0.1,0,0.2,0,0.3,0.1
				s-0.2,0.1-0.3,0.1c0.1,0.1,0.1,0.2,0.3,0.1c0,0,0.1,0,0.1,0.1l0.2-0.1c0-0.2,0.1-0.5-0.1-0.5C56.3,152.5,56.2,152.5,56.1,152.4
				 M56,153.6c0.2,0.1-0.1,0.4,0.1,0.5C56.5,154.1,56.3,153.4,56,153.6 M56.6,155c-0.2,0.1-0.2,0.3-0.4,0.3c0,0.2,0.1,0.2,0.1,0.3
				c0,0.2-0.2,0.3,0,0.6l0.3-0.1c0-0.2-0.1-0.3,0.1-0.3c-0.1-0.3-0.1-0.3-0.2-0.7c0.2,0,0.2,0.3,0.4,0.1
				C56.9,155.2,56.8,155.1,56.6,155 M56.6,156.8L56.6,156.8c-0.1,0.1-0.1,0.3,0,0.3C56.7,157.1,56.6,156.9,56.6,156.8 M56.5,153.7
				c0.1,0.1,0.1,0.5,0.4,0.4c-0.1-0.2,0.1-0.2,0-0.4C56.7,153.7,56.6,153.6,56.5,153.7 M57.2,156.7c-0.1,0.1-0.3,0.1-0.2,0.3
				C57.2,157,57.2,156.9,57.2,156.7 M57.3,158.8c-0.3,0.1-0.1,0.4,0.1,0.3L57.3,158.8z"/>
			<path fill="#FFFFFF" d="M71.8,145.8c-1.2,0.5-2.3,0.9-3.9,1.2c-0.7,0.1-1.4,0.1-1.7,0.3c-0.7,0.4-0.9,1.5-0.1,2.4
				c1.2,0.1,3.3-1,4.7-0.9c0.6,0.6,0.6,2,0.8,2.6c-1.1,1.1-3.8,0.7-4.7,1.8c0,0.5,0.3,1.1,0.5,1.6c0.5,0.1,1.1,0.2,1.7,0
				c0.3-0.1,0.5-0.3,0.8-0.4c0.6-0.2,1.4-0.1,2.2-0.3c0.9-0.3,1.5-0.7,2-0.3c0.6,0.4,0.6,1.7,0.7,2.7c-0.6,0.6-1.5,0.5-2.3,0.7
				c-0.4,0.1-0.8,0.4-1.2,0.5c-1.2,0.3-2.5,0.3-3.7,0.7c-1.1,0.3-2,1-3,0.6c-0.9-4.5-2.6-9-3.2-13.6c0-0.2,0.1-0.3,0.2-0.4
				c3.2-0.6,6.3-1.8,9.6-2.3C71.7,143.4,71.9,145,71.8,145.8 M63.5,147.3c0,0-0.1,0-0.2,0c0.1,0.2-0.1,0.3,0,0.4
				C63.6,147.6,63.8,147.5,63.5,147.3 M63.5,146.8c0.1,0,0.3,0.1,0.4,0c0-0.2-0.1-0.3-0.3-0.4c-0.2,0.1,0,0.2-0.1,0.2
				C63.5,146.6,63.5,146.7,63.5,146.8 M63.9,147.9c-0.1,0.1-0.2,0.2-0.3,0.2c0.1,0.2,0.2,0.3,0.3,0.3
				C63.8,148.2,64.1,148.1,63.9,147.9 M64,149.1c-0.2-0.1-0.5,0.1-0.3,0.4C63.9,149.4,64.2,149.3,64,149.1 M64.1,150.5
				c0.2,0,0.2-0.2,0.3-0.3c0.1,0.2,0.2,0.1,0.3,0.3c0.4-0.3-0.2-0.6-0.4-0.8c-0.1,0.1-0.1,0.1-0.2,0.1
				C64.3,150.1,63.9,150.3,64.1,150.5 M64.6,151.1c0,0.1,0.1,0.2,0.1,0.1c0-0.3-0.4-0.1-0.6-0.1c0,0.1,0.1,0.2,0.2,0.3
				C64.4,151.2,64.4,151.1,64.6,151.1 M64.7,146.2c0-0.1,0-0.1-0.1-0.1c-0.1,0.1-0.2,0.2-0.1,0.3C64.5,146.3,64.6,146.2,64.7,146.2
				 M64.7,152.4c-0.1,0-0.1,0-0.2,0.1c0.1,0.2,0.2,0.1,0.3,0.2c-0.2,0.1,0.1,0.2,0.1,0.2c0,0.1-0.2,0.1-0.3,0.1
				c0.2,0.4,0.5,0.1,0.8,0c-0.1-0.1,0-0.1-0.1-0.3c0.1,0,0.1,0,0.1-0.1c-0.1,0-0.1,0-0.2,0c0.1-0.1-0.1-0.1-0.1-0.2
				c0-0.2,0-0.3-0.1-0.5c-0.1,0.1-0.3,0-0.4,0.1c0.1,0,0.2,0.1,0.2,0.1C64.7,152.3,64.7,152.4,64.7,152.4 M64.7,151.3
				c0,0.1,0.1,0.3,0.2,0.1C64.8,151.3,64.8,151.2,64.7,151.3 M65.1,153.8c-0.1,0-0.1,0-0.1,0.1c0.1,0.1,0.2,0.3,0.3,0.2
				C65.2,154,65.2,153.9,65.1,153.8 M65.3,151.9c-0.1,0-0.2-0.1-0.3,0c0.1,0.1,0.2,0.2,0.3,0.2C65.2,152,65.3,152,65.3,151.9
				 M65.3,151.4c0.1,0.1,0.1,0.2,0.2,0c-0.1-0.2-0.3-0.3-0.4-0.2C65,151.5,65.2,151.5,65.3,151.4 M65.5,155.1c0-0.1,0.1-0.2,0.1-0.4
				c-0.2,0-0.3,0.1-0.5,0.2c0.1,0.2,0.2,0.1,0.2,0.1C65.4,155,65.4,155.1,65.5,155.1 M65.5,157c0.1-0.1,0.2-0.1,0.1-0.2
				c-0.2,0.1-0.3,0.2-0.2,0.4C65.5,157.3,65.5,157.1,65.5,157 M66.4,157.1c-0.2,0-0.3-0.2-0.4,0c0.1,0.3,0.1,0.5,0.1,0.7
				C66.4,157.7,66.4,157.4,66.4,157.1 M67.3,157.5c0-0.1,0.1-0.2,0-0.4c-0.2,0.1-0.4,0.1-0.6,0.2C66.8,157.6,67,157.6,67.3,157.5
				 M68.1,150.9c0,0-0.1-0.1-0.1-0.2c-0.2,0-0.3,0.2-0.2,0.4C67.9,151.1,68,151,68.1,150.9 M68.6,150.5c-0.1-0.1-0.3,0.1-0.2,0.2
				C68.5,150.7,68.8,150.6,68.6,150.5"/>
			<path fill="#FFFFFF" d="M88.9,152.9c-0.6,0.7-1.9,0.4-2.7,0.9c-1.2-0.4-1.8-1.8-2.6-2.7c-0.5-0.1-1,0-1.7,0.2
				c-0.7,0.9,0.2,2.1,0.3,3.3c-0.7,0.5-2.5,1-3.4,0.9c-0.9-2.2-1.1-5.3-2-7.8c-0.1-0.3-0.3-0.4-0.4-0.7c-0.1-0.5-0.1-1.1-0.2-1.7
				c-0.3-1.3-1.1-2.3-0.7-3.6c0.6-0.5,2.4-0.7,3.7-1.1c2.6-0.6,4.7-0.9,6.4,0.3c0.8,0.7,1.2,1.4,1.9,2.5c0.1,1.2,0.3,2.6,0.1,3.8
				c-0.4,0.7-0.9,1.3-1.2,2.1C87.2,150.8,88.5,151.2,88.9,152.9 M77.1,142.7c-0.2,0.1-0.4,0.1-0.3,0.3
				C76.9,143.1,77.2,142.9,77.1,142.7 M76.9,143.8l0.3-0.1l-0.1-0.2l-0.3,0.1L76.9,143.8z M77.5,144.4c0,0,0,0.1-0.1,0.3
				c-0.1,0-0.1,0.1-0.1,0.3c0.1,0.1,0.2-0.1,0.3-0.1c0-0.1,0.1-0.2,0.1-0.3s0-0.6-0.2-0.7c0,0.2,0,0.2-0.1,0.3c0-0.2-0.3,0-0.3-0.2
				H77c0.1,0.1-0.1,0.1,0,0.3C77.2,144.5,77.4,144.3,77.5,144.4 M77.6,142.7L77.6,142.7c-0.1,0.2-0.2,0.1-0.1,0.3
				C77.6,143,77.7,142.9,77.6,142.7 M77.5,146c0.2,0,0.3-0.1,0.2-0.3l-0.3,0.1L77.5,146z M78.1,147.5c-0.2,0-0.3,0.1-0.4,0.1
				C77.7,147.9,78.3,147.8,78.1,147.5 M78.2,146.4c0-0.3-0.1-0.4-0.3-0.3c0,0.2-0.3,0.4-0.2,0.5C78,146.6,78.1,146.5,78.2,146.4
				 M77.9,146.8c-0.1,0.1-0.1,0.4,0.1,0.3C78.1,147.1,78,146.7,77.9,146.8 M78.7,147.5l-0.1-0.3c-0.2,0-0.3,0.1-0.2,0.3
				C78.6,147.4,78.6,147.5,78.7,147.5 M79.1,150.4c-0.2,0-0.1,0.1-0.2,0.2c-0.1,0-0.1,0-0.2,0.1c0,0.2,0.1,0.4,0.3,0.3
				c0-0.1,0-0.2,0-0.3c0.2,0,0.1-0.2,0.2-0.2c-0.1-0.3-0.2-0.5-0.4-0.5c-0.1,0.1-0.2,0.2-0.1,0.4C78.9,150.3,79.1,150.2,79.1,150.4
				 M79.1,151.9c0,0.3,0.2,0.5,0.5,0.4C79.6,152.1,79.3,152,79.1,151.9 M79.5,150.8c-0.1,0-0.1,0-0.2-0.1c0.1,0.1,0,0.2,0,0.2
				C79.5,151,79.5,150.9,79.5,150.8 M80.1,152.9c0-0.5-0.5-0.2-0.4,0.1C79.8,153,79.9,153,80.1,152.9 M83.7,143.9
				c-0.7-0.9-2.6-0.8-4,0.2c0.1,1.1,0.5,3,1,4.1c1,0.2,2.7-0.4,3.3-1.1C84.5,146.2,84.2,144.7,83.7,143.9 M80.2,153.8
				c0,0.2,0.2,0.1,0.3,0.1C80.5,153.7,80.4,153.8,80.2,153.8 M80.5,153c-0.2,0-0.2,0.1-0.2,0.2C80.5,153.2,80.6,153.2,80.5,153
				 M84.4,148.7c0-0.1-0.1-0.2-0.2-0.3C84,148.6,84.2,148.6,84.4,148.7 M85,148.2c-0.3-0.1-0.4,0-0.5-0.2c-0.2,0.3,0.3,0.2,0.3,0.4
				C84.9,148.4,85,148.3,85,148.2 M84.8,150c-0.2,0.1-0.2,0-0.3,0.2c0,0,0,0.1,0.1,0.1C84.8,150.4,85,150.2,84.8,150 M84.8,148.9
				c0-0.1,0.1-0.1,0.1-0.1c-0.1-0.1-0.2-0.1-0.3-0.1C84.6,148.7,84.6,148.8,84.8,148.9 M84.8,143.8c-0.1,0-0.2,0.2-0.1,0.2
				C84.7,143.9,84.9,143.9,84.8,143.8 M84.8,151c0.2,0.3,0.4,0.4,0.7,0.1C85.3,150.9,85.1,150.9,84.8,151 M85.2,148l0.1-0.3
				c-0.1-0.1-0.3-0.1-0.4-0.1C84.9,147.8,85,147.9,85.2,148 M85.5,150.5c0,0-0.1,0-0.2,0c0,0.1,0,0.1-0.1,0.2
				C85.3,150.7,85.4,150.6,85.5,150.5 M85.5,146.6c0-0.1,0-0.1,0-0.2c-0.1,0-0.2,0.1-0.3,0.1C85.2,146.8,85.4,146.7,85.5,146.6
				 M86,146.9c-0.3-0.1-0.4,0.2-0.6,0.4C85.7,147.3,85.9,147.3,86,146.9 M85.6,147.7c0.1-0.1,0-0.1,0-0.2c-0.1,0-0.1,0-0.2,0
				C85.4,147.6,85.5,147.7,85.6,147.7 M85.6,146.9c0-0.1,0-0.1,0.1-0.2C85.5,146.6,85.4,146.9,85.6,146.9 M85.8,146.6
				c0.1,0,0.1-0.3,0.2-0.4c-0.1-0.2-0.3,0.1-0.3-0.1C85.5,146.2,85.8,146.4,85.8,146.6 M86.2,151.7c-0.3-0.4-0.6,0-0.3,0.3
				C86,151.8,86.1,151.8,86.2,151.7 M86.2,151.1c0.1-0.1-0.1-0.2-0.2-0.2c-0.1,0.1,0,0.1-0.1,0.3C86,151.1,86.1,151.1,86.2,151.1
				C86.2,151,86.2,151,86.2,151.1 M86.6,151.6c-0.1,0.1-0.2,0.2-0.1,0.3C86.7,151.7,86.7,151.6,86.6,151.6 M86.7,152.4
				c0.1,0.1,0.2,0,0.3-0.1C86.9,152.2,86.8,152.3,86.7,152.4"/>
			<path fill="#FFFFFF" d="M100.3,145.1c-0.1-0.3-0.4-0.5-0.6-0.7c-0.6-0.1-0.8,0.6-1.4,0.4c-0.6-0.1-0.9-1.5-0.9-2.3
				c1.3-0.8,3.4-1.4,5.1-1.3c0.9,1.5,1.1,4,1.6,5.8c0.2,0.7,0.6,1.4,0.3,2c-1.1,0.7-2.4,0.6-3.1,0.3c-1.2,1.2-3,2-4.9,2
				c-1.1,0-2-0.5-2.9-1c-0.8-0.5-1.3-0.8-1.9-1.7c-0.9-1.3-1.7-3.6-1.8-5.5c-0.1-2.5,1-4.5,2.8-6c0.6,0.1,0.9-0.5,1.3-0.7
				c1.6-0.6,3.2-0.6,4.8-0.5c0.7,0.4,1.2,0.5,2,1.1c0.9,0.7,1,1.2,0.2,2c-0.4,0.4-0.6,0.7-1.2,0.7c-0.9,0.2-1.4-0.8-2.4-0.9
				c-4-0.3-4.6,4.2-3,7.3c0.6,1.1,1.4,1.5,2.6,1.9C99,147.8,100.1,146.8,100.3,145.1 M91.4,143.2c0.1,0.1,0.2,0.1,0.2,0.3
				c0,0,0,0,0,0.1c-0.2,0-0.2,0.1-0.3,0.2l0.1,0.3c0,0,0.1,0,0.1,0.1c0.1,0,0.1-0.1,0.2,0c0,0.1,0.1,0.1,0.1,0.1
				c0.1,0.3-0.1,0.3,0,0.6c0.1,0.1,0.4,0,0.4-0.1c-0.2-0.4,0-0.4,0.1-0.7c-0.1,0-0.2-0.1-0.3-0.1c-0.2,0-0.3,0-0.4,0
				c0-0.1,0.1,0,0.1-0.1s0-0.1,0-0.2c0-0.1,0.2-0.2,0.2-0.3c-0.1,0,0-0.1-0.1-0.1c0-0.1-0.1,0-0.1-0.1c0.1-0.1,0.2-0.1,0.2-0.3
				c-0.1,0-0.1-0.1-0.2,0C91.6,142.9,91.4,143,91.4,143.2 M91.6,142.1L91.6,142.1c0.1,0.1,0,0.1,0.1,0.2c0.2,0,0.4,0.3,0.5,0.2
				c0-0.3-0.2-0.2-0.3-0.3c0.2,0,0-0.2-0.1-0.2c0.1-0.1,0.2,0,0.1-0.2c-0.1,0-0.2-0.1-0.3,0C91.6,142,91.5,142,91.6,142.1
				C91.5,142.1,91.5,142.1,91.6,142.1 M91.8,141.2c-0.2,0-0.1,0.1-0.3,0.1C91.5,141.6,91.9,141.4,91.8,141.2 M92.2,145.1
				c-0.2,0.1-0.5,0.2-0.3,0.5C92.2,145.6,92.3,145.4,92.2,145.1 M92.3,146.3c-0.1,0-0.1-0.1-0.2,0c0,0.2,0,0.4,0.1,0.6
				C92.5,146.9,92.5,146.5,92.3,146.3 M92.8,146c0.2-0.1,0.1-0.7-0.2-0.6c0.1,0.2-0.1,0.1-0.2,0.2C92.6,145.8,92.6,146,92.8,146
				 M92.9,147.1l-0.2,0.1c0,0.1,0,0.1,0,0.2C92.8,147.3,93,147.3,92.9,147.1 M93.2,148c0.1,0,0.1-0.3-0.1-0.3c0,0,0,0.1-0.1,0.1
				C93.1,147.9,93,148.1,93.2,148 M93.4,148.5c0.1,0.1,0.1,0.1,0.2,0.2c0.1,0.1,0.2,0.4,0.4,0.2c-0.3-0.1-0.4-0.3-0.6-0.5
				c-0.2,0-0.2,0.2-0.3,0.3C93.3,148.6,93.3,148.5,93.4,148.5 M99.5,142.6c-0.1,0.2,0,0.5,0.4,0.3C99.9,142.7,99.7,142.6,99.5,142.6
				 M100.1,143.3c0-0.2-0.6,0-0.5,0.1c0.1,0,0.1,0,0.2,0.1C99.9,143.5,100.2,143.6,100.1,143.3 M100.3,142.9l0.3-0.1l-0.1-0.3
				l-0.3,0.1L100.3,142.9z M101.4,142.4c-0.1,0.2-0.5-0.1-0.5,0.1c0.1,0,0.1,0.1,0.2,0.1C101.3,142.7,101.5,142.8,101.4,142.4
				 M102.4,144.7c-0.3,0.1-0.4-0.2-0.7-0.1c0,0.4,0.5,0.2,0.7,0.4C102.3,144.9,102.4,144.9,102.4,144.7 M102,145.5L102,145.5
				c0-0.2-0.1-0.3-0.3-0.2c0,0.1,0.1,0.2,0.1,0.2C101.9,145.4,101.8,145.6,102,145.5 M102.2,145.7L102.2,145.7L102.2,145.7
				c-0.1,0.1-0.2,0.1-0.2,0.1s-0.1,0-0.1,0.1s0,0.1,0,0.1c0.1,0.2,0.1,0.4,0.3,0.4c0-0.1,0-0.1,0-0.1c0.1,0.1,0.2,0.1,0.3,0
				c0,0.1,0.1,0.2,0.2,0.1c-0.1-0.2-0.1-0.3-0.2-0.3s-0.1,0.1-0.2,0.1c0-0.1-0.1,0-0.1-0.2c0.2-0.1,0.3-0.1,0.4-0.3
				c-0.1,0,0-0.2-0.2-0.1C102.4,145.5,102.4,145.6,102.2,145.7C102.3,145.6,102.3,145.6,102.2,145.7 M102.5,147.3v0.1
				c0,0,0.1-0.1,0.1,0c-0.1,0,0,0.2,0,0.3c0.1,0,0.1,0.2,0.2,0.1c0-0.1,0-0.2,0.1-0.2c-0.1-0.2-0.1-0.5-0.3-0.5
				c0.1-0.2,0.4-0.2,0.4-0.4c-0.4,0.1-0.7,0.2-0.8,0.4C102.3,147.2,102.4,147.3,102.5,147.3 M103.1,148.4c-0.1,0-0.1,0-0.2,0
				c0,0.1,0,0.1,0,0.3C103.1,148.7,103.2,148.6,103.1,148.4"/>
			<path fill="#FFFFFF" d="M111.6,145c0.2,0.9,0.9,1.5,0.3,2.3c-0.7,0.2-1.9,0.7-2.8,0.7c-1-1.5-1.1-3.7-1.7-5.8
				c-0.7-2.4-1.6-5.4-1.8-8c0.9-0.5,2.2-0.8,3.2-0.7C109.8,136.7,110.6,141.4,111.6,145 M107.5,135.4c0-0.1-0.1-0.2-0.2-0.2
				c0,0.2-0.2,0.1-0.1,0.3L107.5,135.4z M107.7,136.6c0-0.2-0.1-0.3-0.2-0.3c-0.1,0.1,0,0.2,0,0.4L107.7,136.6z M107.4,139.2
				c0.3,0,0.3-0.2,0.4-0.4c-0.1,0-0.2-0.1-0.3,0C107.5,139,107.4,139,107.4,139.2 M107.5,139.6c0,0.3,0.1,0.8,0.6,0.5
				c0.1-0.3-0.3-0.2-0.3-0.6L107.5,139.6z M108.4,139.8c-0.1-0.2,0.1-0.4-0.1-0.6c0.1-0.1,0.3-0.2,0.3-0.4c-0.2-0.1-0.3-0.3-0.4-0.7
				c-0.2,0-0.4,0.1-0.6,0.1c0.1,0.2,0.3,0.2,0.3,0.4C108.1,138.9,107.9,139.8,108.4,139.8 M108.3,140.8c0-0.1,0.1-0.1,0-0.3
				c-0.2,0-0.4,0.1-0.4,0.3C108.1,140.7,108.1,140.9,108.3,140.8 M108.5,142.1c-0.1,0.2,0.2,0.4,0.3,0.3
				C108.8,142.3,108.7,142.2,108.5,142.1 M108.7,139.7c0.1,0.2,0,0.2,0,0.3C109.1,140.1,109.1,139.5,108.7,139.7 M108.9,144.1
				c0,0.3,0.2,0.5,0.5,0.4C109.4,144.3,109.2,144.2,108.9,144.1 M109.3,141.5l-0.3,0.1c0,0.2,0.1,0.2,0.2,0.2
				C109.2,141.6,109.3,141.6,109.3,141.5 M109.5,143.1c-0.2,0.1-0.2-0.1-0.4,0c0,0.1,0,0.1,0,0.2
				C109.3,143.4,109.6,143.3,109.5,143.1 M109.9,145.1c0-0.5-0.5-0.2-0.4,0.1C109.7,145.2,109.8,145.2,109.9,145.1 M110,146
				c0,0.2,0.2,0.1,0.3,0.1C110.3,146,110.2,146,110,146 M110.4,145.3c-0.2,0-0.2,0.1-0.2,0.2C110.3,145.4,110.4,145.4,110.4,145.3"
				/>
			<path fill="#FFFFFF" d="M116.8,144.1c-0.1-0.6-0.4-1-0.6-1.6c-0.6-2.2-0.9-4.6-1.5-6.7c-0.3-1.3-0.9-2.4-0.8-3.7
				c0.6-0.6,2.3-0.7,3.7-1.1c2-0.5,3.8-1.1,5.2-0.8c2.1,0.5,3.7,3.3,2.7,5.5c-0.2,0.4-0.4,0.4-0.3,0.8c0.1,0.5,1,0.7,1.4,1.2
				c0.8,0.9,1.3,2.9,0.7,4.1c-0.3,0.7-1.6,1.9-2.7,2.3c-2,0.9-4.8,1-7.3,1.6C116.8,145.4,116.9,144.7,116.8,144.1 M115.2,132.9
				l-0.3,0.1c0,0.2,0.1,0.3,0.3,0.2V132.9z M115.9,135c-0.2,0-0.2,0.1-0.2,0.2C115.8,135.2,115.8,135.1,115.9,135 M116.3,135.5
				c-0.2-0.1-0.5,0-0.4,0.4C116.2,135.9,116.3,135.7,116.3,135.5 M117,137.5c-0.3-0.1-0.6-0.2-1-0.1l0.1,0.3c0.2,0,0.2-0.2,0.5-0.3
				c0,0.2,0.1,0.1,0.1,0.3C116.8,137.6,117,137.6,117,137.5 M116.2,136.4C116.2,136.5,116.2,136.5,116.2,136.4
				c-0.1,0.2-0.2,0.3-0.2,0.4c0.2,0,0.4,0,0.6,0c0-0.2-0.1-0.5,0-0.7c-0.1,0-0.2,0.1-0.2,0.2C116.2,136.4,116.2,136.4,116.2,136.4
				 M116.8,139.1c-0.1-0.1-0.2-0.4-0.4-0.3c0.1,0.3-0.1,0.3,0,0.5C116.5,139.3,116.7,139.3,116.8,139.1 M117.1,138.8
				c-0.1,0.2,0.1,0.5,0,0.6c0.2,0,0.2,0,0.3,0.2c-0.1,0.3,0.2,0.5,0.5,0.5c0.2-0.3-0.1-0.5-0.2-0.9c-0.4,0.2-0.3-0.5-0.5-0.4
				C117.2,138.8,117.2,138.8,117.1,138.8 M117.5,141c-0.1-0.2,0-0.2,0-0.4c-0.2-0.1-0.2,0.1-0.4,0.1
				C117.2,140.9,117.3,140.9,117.5,141 M118.1,141c0.1-0.1,0.3,0,0.1-0.2c-0.1-0.1-0.2-0.1-0.3,0c0,0.2-0.1,0.2,0,0.3
				C118.1,141.1,118.1,141,118.1,141 M121.2,133.5c-0.7-0.1-2.5,0.5-3.1,0.7c-0.4,0.6,0.1,2.2,0.6,2.8c1.2-0.1,3.2-0.4,3.5-1.5
				C122.6,134.6,122.1,133.6,121.2,133.5 M118.1,141.6c0,0.2,0.1,0.4,0.2,0.3C118.2,141.7,118.2,141.6,118.1,141.6 M123,139.2
				c-0.9-0.3-2.6,0.1-3.5,0.6c-0.3,0.8,0.2,2.2,0.7,2.7c1.6,0,3.9-0.8,3.6-2.2C123.7,139.8,123.2,139.7,123,139.2 M120.9,138.4
				c0.2-0.1,0.2-0.3,0.1-0.5C120.8,138.1,120.7,138.2,120.9,138.4 M123.1,134.4c-0.1,0-0.2,0.1-0.2,0.2
				C123.1,134.6,123.2,134.6,123.1,134.4 M123.3,132.8c0,0.1-0.1,0.5,0.2,0.4C123.4,133.1,123.5,132.8,123.3,132.8 M124.2,135
				c0-0.2-0.2-0.1-0.2-0.3c-0.2,0.1-0.3,0.1-0.3,0.3C123.8,135.1,124,135.1,124.2,135 M123.9,134l-0.3,0.1c0,0.1,0.1,0.2,0.1,0.3
				C124,134.3,123.9,134.2,123.9,134 M124.7,139c0.3-0.1,0.2-0.3,0.3-0.4c-0.2-0.1-0.4-0.1-0.6-0.4
				C124.3,138.5,124.5,138.9,124.7,139 M125,142.4c-0.1-0.1-0.1-0.1-0.1-0.2c0,0.4-0.4,0.3-0.4,0.5h0.1
				C124.8,142.8,125,142.6,125,142.4 M125.5,141.6c0.1,0,0.1,0.1,0.1,0.1c0.1-0.2-0.1-0.3-0.2-0.4c0,0.1-0.1,0-0.1,0.1
				s-0.1,0.2-0.1,0.3c-0.2,0.1-0.3,0.1-0.5,0.3c0.1,0,0.2,0,0.2,0.1c0.1-0.2,0.2-0.2,0.4-0.2C125.4,141.7,125.4,141.7,125.5,141.6
				 M125.1,140.3c0,0.1-0.1,0.2-0.2,0.2c0.2,0.2,0.5,0.1,0.6-0.1C125.3,140.4,125.2,140.4,125.1,140.3 M125.5,139.9
				c0-0.2-0.3-0.6-0.5-0.4C125,139.8,125.2,139.8,125.5,139.9 M125.4,138.9c-0.1-0.1-0.2-0.1-0.3-0.1c-0.1,0.1,0.2,0.3,0.2,0.3
				C125.4,139,125.4,139,125.4,138.9 M125.8,141.9c-0.1-0.1-0.2,0-0.3,0.1c0.1,0.2,0.1,0,0.2,0C125.9,142,125.8,142,125.8,141.9
				 M125.7,140.2c-0.2,0.3,0.2,0.6,0.4,0.3C125.9,140.5,125.9,140.3,125.7,140.2"/>
			<path fill="#FFFFFF" d="M138.9,128.7c-1.2,0.5-2.3,0.9-3.9,1.2c-0.7,0.1-1.4,0.1-1.7,0.3c-0.7,0.4-0.9,1.5-0.1,2.4
				c1.2,0.1,3.3-1,4.7-0.9c0.6,0.6,0.6,2,0.8,2.6c-1.1,1.1-3.8,0.7-4.7,1.8c0,0.5,0.3,1.1,0.5,1.6c0.5,0.1,1.1,0.2,1.7,0
				c0.3-0.1,0.5-0.3,0.8-0.4c0.6-0.2,1.4-0.1,2.2-0.3c0.9-0.3,1.5-0.7,2-0.3c0.6,0.4,0.6,1.7,0.7,2.7c-0.6,0.6-1.5,0.5-2.3,0.7
				c-0.4,0.1-0.8,0.4-1.2,0.5c-1.2,0.3-2.5,0.3-3.7,0.7c-1.1,0.3-2,1-3,0.6c-0.9-4.5-2.6-9-3.2-13.6c0-0.2,0.1-0.3,0.2-0.4
				c3.2-0.6,6.3-1.8,9.6-2.3C138.9,126.3,139,127.9,138.9,128.7 M130.7,130.2c0,0-0.1,0-0.2,0c0.1,0.2-0.1,0.3,0,0.4
				C130.8,130.6,130.9,130.5,130.7,130.2 M130.6,129.7c0.1,0,0.3,0.1,0.4,0c0-0.2-0.1-0.3-0.3-0.4c-0.2,0.1,0,0.2-0.1,0.2
				C130.7,129.6,130.6,129.7,130.6,129.7 M131.1,130.8c-0.1,0.1-0.2,0.2-0.3,0.2c0.1,0.2,0.2,0.3,0.3,0.3
				C130.9,131.2,131.2,131.1,131.1,130.8 M131.2,132.1c-0.2-0.1-0.5,0.1-0.3,0.4C131.1,132.4,131.3,132.3,131.2,132.1 M131.3,133.5
				c0.2,0,0.2-0.2,0.3-0.3c0.1,0.2,0.2,0.1,0.3,0.3c0.4-0.3-0.2-0.6-0.4-0.8c-0.1,0.1-0.1,0.1-0.2,0.1
				C131.4,133.1,131.1,133.3,131.3,133.5 M131.7,134.1c0,0.1,0.1,0.2,0.1,0.1c0-0.3-0.4-0.1-0.6-0.1c0,0.1,0.1,0.2,0.2,0.3
				C131.6,134.2,131.5,134.1,131.7,134.1 M131.9,129.2c0-0.1,0-0.1-0.1-0.1c-0.1,0.1-0.2,0.2-0.1,0.3
				C131.7,129.3,131.8,129.2,131.9,129.2 M131.8,135.4c-0.1,0-0.1,0-0.2,0.1c0.1,0.2,0.2,0.1,0.3,0.2c-0.2,0.1,0.1,0.2,0.1,0.2
				c0,0.1-0.2,0.1-0.3,0.1c0.2,0.4,0.5,0.1,0.8,0c-0.1-0.1,0-0.1-0.1-0.3c0.1,0,0.1,0,0.1-0.1c-0.1,0-0.1,0-0.2,0
				c0-0.1-0.1-0.1-0.1-0.2c0-0.2,0-0.3-0.1-0.5c-0.1,0.1-0.3,0-0.4,0.1c0.1,0,0.2,0.1,0.2,0.1C131.9,135.3,131.8,135.3,131.8,135.4
				 M131.9,134.2c0,0.1,0.1,0.3,0.2,0.1C132,134.3,131.9,134.2,131.9,134.2 M132.3,136.8c-0.1,0-0.1,0-0.1,0.1
				c0.1,0.1,0.2,0.3,0.3,0.2C132.4,137,132.3,136.9,132.3,136.8 M132.4,134.9c-0.1,0-0.2-0.1-0.3,0c0.1,0.1,0.2,0.2,0.3,0.2
				C132.4,135,132.4,135,132.4,134.9 M132.4,134.4c0.1,0.1,0.1,0.2,0.2,0c-0.1-0.2-0.3-0.3-0.4-0.2
				C132.2,134.5,132.4,134.4,132.4,134.4 M132.7,138.1c0-0.1,0.1-0.2,0.1-0.4c-0.2,0-0.3,0.1-0.5,0.2c0.1,0.2,0.2,0.1,0.2,0.1
				C132.5,138,132.6,138.1,132.7,138.1 M132.6,140c0.1-0.1,0.2-0.1,0.1-0.2c-0.2,0.1-0.3,0.2-0.2,0.4
				C132.7,140.2,132.6,140.1,132.6,140 M133.5,140.1c-0.2,0-0.3-0.2-0.4,0c0.1,0.3,0.1,0.5,0.1,0.7
				C133.5,140.7,133.5,140.4,133.5,140.1 M134.5,140.5c0-0.1,0.1-0.2,0-0.4c-0.2,0.1-0.4,0.1-0.6,0.2
				C133.9,140.6,134.2,140.5,134.5,140.5 M135.3,133.9c0,0-0.1-0.1-0.1-0.2c-0.2,0-0.3,0.2-0.2,0.4
				C135,134.1,135.2,133.9,135.3,133.9 M135.8,133.5c-0.1-0.1-0.3,0.1-0.2,0.2C135.7,133.7,135.9,133.6,135.8,133.5"/>
			<path fill="#FFFFFF" d="M150,126.8c-0.3-0.2-0.1-0.5-0.5-0.6c-1.4-0.7-3.9,0.5-3.5,1.7c0.3,0.8,2.1,0.8,3.3,0.9
				c0.6,0.1,1.1,0.2,1.7,0.3c1.9,0.3,3.9,0.5,4.5,3c0.2,0.7,0,1.6-0.1,2.2c-0.1,0.3-0.1,0.6-0.2,0.7c-0.3,0.6-1,1.1-1.7,1.6
				c-0.8,0.6-2,1.2-3.3,1.4c-3.1,0.5-5.7-0.2-6.1-3.3c0.4-0.5,2-0.9,2.7-0.9c0.8,0.1,1,1,2,1.1c1.2,0.1,3.4-0.4,3.1-1.7
				c-0.2-1-1.9-1-3.1-1.1c-1.8-0.2-4-0.3-5.3-1.3c-0.7-0.5-0.8-1-1.1-2.1c-0.2-1-0.4-1.6-0.1-2.5c0.8-1.5,2.8-2.9,5.9-3.3
				c1.1-0.1,2.1,0.2,3,0.2c0.9,0.6,2.2,1.5,2.3,3.1C152.8,127,150.6,127.4,150,126.8 M144,127.5l-0.1-0.4c-0.2,0-0.1,0.1-0.3,0.2
				C143.7,127.5,143.8,127.5,144,127.5 M143.8,128.6c-0.1,0.1-0.1,0.4,0.2,0.3C143.9,128.8,144,128.5,143.8,128.6 M144.4,126.7
				c-0.2-0.1,0.1-0.3,0-0.5l-0.1-0.2c0-0.1-0.1,0-0.2,0c-0.1,0.3-0.2,0.5-0.2,0.8C144.1,126.7,144.4,126.8,144.4,126.7 M144.6,126.8
				c-0.2,0-0.3,0.1-0.3,0.3C144.4,127.1,144.6,127,144.6,126.8 M144.4,128.8c0,0.2,0.1,0.2,0.2,0.2
				C144.7,128.9,144.6,128.7,144.4,128.8 M144.8,128.2c0,0.2,0.2,0.1,0.2,0.3c0.2-0.1,0.2-0.2,0.2-0.3c-0.1-0.2-0.3-0.1-0.3-0.3
				s0.1-0.4-0.1-0.4c0,0.2-0.1,0.3-0.3,0.3C144.5,128,144.7,128,144.8,128.2 M144.7,125.4c0-0.1-0.1-0.2-0.2-0.2c0,0.1,0,0.1,0,0.2
				H144.7z M145,129.3c-0.1,0-0.1,0-0.2,0c0.1,0.2-0.2,0.3,0,0.3C145.1,129.7,145.1,129.5,145,129.3 M145.7,129.9
				c0-0.1-0.1-0.2-0.3-0.1c0,0,0,0.1,0,0.2C145.6,130,145.7,130,145.7,129.9 M149.3,136.6c0-0.2-0.1-0.3-0.1-0.3
				c-0.2,0-0.1,0.1-0.3,0.2C148.9,136.7,149.2,136.6,149.3,136.6 M150,136.7c-0.1,0-0.2,0.1-0.3,0.1
				C149.8,137,150.1,136.8,150,136.7 M150.7,136.6c-0.1,0-0.1,0-0.2,0c-0.1,0.1,0.1,0.3,0.2,0.3
				C150.8,136.9,150.7,136.7,150.7,136.6 M151.4,125.1c0,0.2,0.3,0.1,0.1,0C151.6,125.1,151.4,125,151.4,125.1 M151.9,135.9
				c-0.1-0.1-0.3,0-0.2,0.2C151.8,136,151.9,135.9,151.9,135.9 M151.7,125.4c0.1,0,0.2,0,0.3,0C152,125.2,151.7,125.3,151.7,125.4
				 M152.2,125c0-0.2-0.1-0.1-0.2-0.2c0,0.1,0,0.1,0,0.2H152.2z M152.8,130.9c-0.1,0-0.1,0-0.2,0c0,0.2,0.1,0.4,0.2,0.3
				C152.9,131.2,152.8,131,152.8,130.9 M153.3,133.8c-0.1-0.2-0.2-0.1-0.4-0.1c0,0.2,0.1,0.1,0.1,0.3
				C153.2,133.9,153.3,133.8,153.3,133.8 M153.4,131.3c0.1,0.1,0,0.2,0.2,0.1c0.1-0.2-0.3-0.5-0.4-0.3S153.3,131.3,153.4,131.3
				 M153.2,133.1c-0.1,0.1-0.1,0.1-0.1,0.2c0.2,0.1,0.3,0.1,0.6,0c0-0.1,0-0.6-0.3-0.5c0,0.1,0,0.1,0,0.1
				C153.3,133,153.3,133,153.2,133.1 M153.2,132.3l0.1,0.3c0.2,0,0.1-0.1,0.3-0.1c-0.1-0.2,0.1-0.3,0.1-0.4
				c-0.2-0.1-0.3-0.1-0.3-0.2c0.2,0,0-0.2,0-0.3c-0.4,0.1-0.1,0.3,0,0.6C153.4,132.2,153.3,132.2,153.2,132.3 M154,131.6
				c0,0.2,0,0.4,0.2,0.3C154.3,131.8,154.3,131.5,154,131.6 M154.3,132.6c-0.3,0-0.2,0.6,0.1,0.4L154.3,132.6z"/>
			<path fill="#FFFFFF" d="M163.2,134.2c-0.6,0.6-2.3,0.9-3.1,0.8c-0.3-0.6-0.6-1.6-0.4-2.2c-0.6-0.7-0.5-1.5-0.7-2.5
				c-0.7-2.9-1.8-6-2.3-8.8c0.2-0.2,0.3-0.4,0.5-0.6c0.4-0.2,0.9,0,1.5-0.2c0.3-0.1,0.6-0.3,1-0.5c2.7-0.9,5.3-1.1,7-0.2
				c1.2,0.7,1.4,1.8,2.3,2.8c0.1,2.2,0.4,3.7-0.7,5.1c-0.7,0.9-1.5,1.5-3,2.2c-0.8,0.4-1.4,0.4-2.2,0.7
				C162.5,131.8,163.5,133.2,163.2,134.2 M158.3,122.1c-0.2,0.1-0.4,0.1-0.3,0.3C158.2,122.5,158.4,122.3,158.3,122.1 M158.1,123.2
				l0.3-0.1l-0.1-0.2L158,123L158.1,123.2z M158.7,123.9c0,0,0,0.1-0.1,0.3c-0.1,0-0.1,0.1-0.1,0.3c0.1,0.1,0.2-0.1,0.3-0.1
				c0-0.1,0-0.2,0.1-0.3c0-0.1,0-0.6-0.2-0.7c0,0.2,0,0.2-0.1,0.3c0-0.2-0.3,0-0.3-0.2h-0.1c0.1,0.1-0.1,0.1,0,0.3
				C158.4,123.9,158.6,123.8,158.7,123.9 M158.8,122.1h-0.1c0,0.2-0.1,0.1,0,0.3C158.8,122.5,158.9,122.3,158.8,122.1 M158.7,125.4
				c0.2,0,0.3-0.1,0.2-0.3l-0.3,0.1L158.7,125.4z M159.3,126.9c-0.2,0-0.3,0.1-0.4,0.1C158.9,127.3,159.5,127.2,159.3,126.9
				 M159.4,125.8c0-0.3-0.1-0.4-0.3-0.3c0,0.2-0.3,0.4-0.2,0.5C159.2,126,159.3,125.9,159.4,125.8 M159.1,126.3
				c-0.1,0.1-0.1,0.4,0.1,0.3C159.3,126.5,159.2,126.1,159.1,126.3 M159.9,126.9l-0.1-0.3c-0.2,0-0.3,0.1-0.2,0.3
				C159.8,126.8,159.8,127,159.9,126.9 M160.3,129.8c-0.2,0-0.1,0.1-0.2,0.2c-0.1,0-0.1,0-0.2,0.1c0,0.2,0.1,0.4,0.3,0.3
				c0-0.1,0-0.2,0-0.3c0.2,0,0.1-0.2,0.2-0.2c-0.1-0.3-0.2-0.5-0.4-0.5c-0.1,0.1-0.2,0.2-0.1,0.4
				C160.1,129.7,160.3,129.6,160.3,129.8 M160.3,131.3c0,0.3,0.2,0.5,0.5,0.4C160.8,131.5,160.5,131.4,160.3,131.3 M160.7,130.3
				c-0.1,0-0.1,0-0.2-0.1c0,0.1,0,0.2,0,0.2C160.7,130.4,160.7,130.3,160.7,130.3 M161.3,132.3c0-0.5-0.5-0.2-0.4,0.1
				C161,132.4,161.1,132.4,161.3,132.3 M164.9,123.4c-0.8-1.1-2.5-0.6-4-0.3c-0.3,1.2,0.4,3.2,1,4.4c1.2,0.1,2.2-0.5,3.1-1
				C165.5,125.6,165.6,124.4,164.9,123.4 M161.4,133.2c0,0.2,0.2,0.1,0.3,0.1C161.7,133.1,161.6,133.2,161.4,133.2 M161.7,132.4
				c-0.2,0-0.2,0.1-0.2,0.2C161.7,132.6,161.8,132.6,161.7,132.4 M163.1,121.3c-0.1-0.1-0.2-0.2-0.3-0.2c0,0.1-0.1,0.1,0,0.2
				C162.9,121.5,163.1,121.4,163.1,121.3 M162.8,120.8c0.1,0.2,0.3,0.1,0.4,0.1C163.2,120.7,163,120.7,162.8,120.8 M164.7,128.6
				c0,0-0.1,0-0.2,0c0,0.1,0,0.1-0.1,0.2C164.5,128.8,164.6,128.8,164.7,128.6 M165.3,128.4c0.1-0.1-0.1-0.2-0.2-0.2
				c-0.1,0.1,0,0.1-0.1,0.3C165.1,128.5,165.2,128.5,165.3,128.4L165.3,128.4 M165.6,121.3c0-0.1-0.1-0.2-0.2-0.2
				c0,0.1-0.3,0.1-0.2,0.3C165.4,121.4,165.5,121.4,165.6,121.3 M165.6,128.1c0-0.1-0.1-0.2-0.2-0.3
				C165.3,128,165.4,128,165.6,128.1 M166.2,127.6c-0.3-0.1-0.4,0-0.5-0.2c-0.2,0.3,0.3,0.2,0.3,0.4
				C166.1,127.9,166.2,127.7,166.2,127.6 M166,128.3c0-0.1,0-0.1,0.1-0.1c-0.1-0.1-0.2-0.1-0.3-0.1
				C165.8,128.1,165.8,128.2,166,128.3 M166,123.2c-0.1,0-0.2,0.2-0.1,0.2C165.9,123.3,166.1,123.3,166,123.2 M166.4,127.4l0.1-0.3
				c-0.1-0.1-0.3-0.1-0.4-0.1C166.1,127.3,166.3,127.4,166.4,127.4 M166.7,126c0-0.1,0-0.1,0-0.2c-0.1,0-0.2,0.1-0.3,0.1
				C166.4,126.2,166.6,126.1,166.7,126 M167.2,126.3c-0.3-0.1-0.4,0.2-0.6,0.4C166.9,126.7,167.1,126.7,167.2,126.3 M166.8,127.1
				c0.1-0.1,0-0.1,0-0.2c0,0-0.1,0-0.2,0C166.6,127,166.7,127.1,166.8,127.1 M166.8,126.4c0-0.1,0-0.1,0.1-0.2
				C166.7,126,166.6,126.3,166.8,126.4 M167,126c0.1,0,0.1-0.3,0.2-0.4c-0.1-0.2-0.3,0.1-0.3-0.1C166.7,125.6,167,125.8,167,126"/>
			<path fill="#FFFFFF" d="M181.2,122.3c0.4,0.6,0.7,1.1,1.1,1.8c0.3,0.6,0.9,1.1,1.2,1.7c0.1,0.3,0.2,0.6,0.3,0.9
				c0.4,0.7,1.1,1.1,0.9,2c-0.5,0.7-1.6,0.5-2.6,0.9c-0.8,0.1-0.8-1.2-1.8-1.4c-0.4,0-3.5,0.7-4.1,1c-0.8,0.5-0.3,1.5-0.8,1.8
				c-1,0.4-2.2,0.9-3.1,0.7c-0.2-0.5-0.1-1-0.1-1.5c0.1-1.3,0.2-3.1,0.2-4.6c0.1-1-0.1-2.1-0.1-3.2c0-0.7,0.3-1.7,0.3-2.7
				c0-1.1-0.3-2.4,0.5-2.9c0.3-0.2,1.9-0.5,2.6-0.7c0.5-0.1,0.9-0.1,1.4-0.1C179,117.9,179.9,120.1,181.2,122.3 M173.4,127.2
				c0.2,0,0.2-0.1,0.3-0.1c0-0.2-0.1-0.3-0.4-0.3C173.3,127,173.3,127,173.4,127.2 M173.6,126.5
				C173.6,126.4,173.6,126.4,173.6,126.5c0-0.4,0.2-0.4,0.2-0.6c-0.3-0.2-0.5,0.2-0.4,0.5C173.5,126.4,173.5,126.4,173.6,126.5
				 M173.9,125.5c0-0.2-0.1-0.3-0.4-0.2C173.6,125.5,173.7,125.6,173.9,125.5 M173.7,129.3c0.2,0,0.2-0.2,0.2-0.3
				C173.7,129,173.7,129.1,173.7,129.3 M174.2,125.6c0.2-0.1,0.3-0.1,0.3-0.3c0-0.1,0,0,0-0.1s-0.1-0.2-0.1-0.2h-0.1
				c-0.1-0.1-0.1-0.2-0.2-0.2c-0.1-0.1-0.3,0-0.5,0c0.1,0.2,0.4,0.1,0.5,0.4C174.3,125.3,174,125.4,174.2,125.6 M173.9,130.3
				c0.1,0,0.1-0.1,0.1-0.2c-0.1,0-0.1,0-0.2,0C173.7,130.2,173.8,130.2,173.9,130.3 M174.3,127.6c-0.1-0.3,0-0.5,0.2-0.6
				c0-0.2-0.2-0.2-0.3-0.3c0-0.1,0-0.4-0.1-0.5c-0.4,0.1-0.2,0.6-0.1,1c0.1,0.3-0.2,0.3-0.2,0.4C174,127.6,174.1,127.7,174.3,127.6
				 M173.8,124.1c0.1-0.1,0.3-0.1,0.2-0.3C173.9,123.7,173.8,123.9,173.8,124.1 M173.8,122.3c0.3,0,0.4-0.2,0.3-0.5
				C173.9,121.8,173.8,122,173.8,122.3 M174.6,123.1c0-0.2-0.4-0.3-0.4,0C174.3,123.2,174.4,123.1,174.6,123.1 M174.5,124.5
				c0.2-0.1-0.1-0.1,0-0.3c-0.1,0.1-0.2,0.1-0.1,0.2C174.4,124.5,174.5,124.5,174.5,124.5 M174.4,126.2c0.1,0,0.1,0,0.2,0
				c0.1-0.1,0-0.5-0.2-0.3C174.4,126,174.4,126,174.4,126.2 M176.1,121.6c0.1,1.4-0.2,2.5,0.1,4c0.5,0.4,2.1-0.1,2.4-0.6
				c0.1-0.7-0.7-1.3-1-2c-0.3-0.6-0.4-1.5-1.2-1.4H176.1z M176.4,118.2c0,0-0.1,0-0.1,0.1c0.1,0.1,0.1,0.1,0.2,0.1L176.4,118.2z
				 M177.3,118.7c0.1,0.2,0.1,0.4,0.3,0.2C177.6,118.8,177.5,118.7,177.3,118.7 M178.1,120.1c0-0.4-0.3-0.4-0.6-0.4
				c0,0.1,0.1,0.1,0.2,0.2C177.9,120,177.9,120.1,178.1,120.1 M178.3,120.8c-0.1,0.1,0,0.2,0.2,0.1
				C178.4,120.8,178.4,120.8,178.3,120.8 M178.5,122.1c0.1,0.2,0.3,0.1,0.4,0.1C178.8,122,178.7,122,178.5,122.1 M179.3,121.5
				l-0.2-0.4c-0.2,0.2-0.6,0.3-0.6,0.5C178.7,121.6,179,121.6,179.3,121.5 M178.6,120.1c0,0.1,0.1,0.2,0.2,0.1
				C178.8,120.1,178.7,120.2,178.6,120.1 M178.7,123.4c0.2-0.1,0.2-0.2,0.2-0.3C178.7,123.1,178.7,123.2,178.7,123.4 M179.4,122.8
				c0,0.2,0.2,0.1,0.2,0.2c0.1,0.2,0.1,0.3,0.3,0.2c0-0.2-0.1-0.2-0.3-0.4c-0.1-0.2,0-0.2-0.1-0.3c-0.2-0.1-0.6,0.1-0.4,0.4
				C179.2,122.9,179.3,122.9,179.4,122.8 M179.2,122.1c0.3,0,0.7,0,0.8-0.4c0-0.1-0.2-0.2-0.3-0.2c0,0.1,0.1,0.1,0,0.2
				C179.5,121.9,179.2,121.9,179.2,122.1 M180.1,122.9c0.3,0,0.4-0.2,0.3-0.5c-0.2,0-0.4,0-0.5,0.1c0,0.1,0.1,0.1,0.1,0.1
				C180.1,122.7,179.9,122.8,180.1,122.9 M180.2,123.9c-0.1,0.1-0.2,0.1-0.2,0.2c0.4-0.1,0.9-0.5,0.6-0.9c-0.1,0-0.2,0.1-0.3,0.1
				C180.3,123.5,180.3,123.7,180.2,123.9 M180.2,125.1c0.1,0.1,0.1,0.4,0.2,0.3c-0.2-0.2,0.1-0.3-0.1-0.6
				C180.1,124.9,180.2,125,180.2,125.1 M180.6,126.4c0.1,0.4,0.7,0.1,0.6-0.2C181,126.3,180.9,126.1,180.6,126.4 M180.9,123.8
				c-0.1,0.2,0.1,0.4,0.3,0.3C181.1,123.9,181,123.8,180.9,123.8 M181.3,124.9c0,0-0.1,0-0.2,0c0.1,0.2,0.2,0.5,0.3,0.4
				C181.6,125.2,181.4,125,181.3,124.9 M181.7,127.1c0.1,0.3,0.2,0.4,0.4,0.3C182,127.3,181.9,127,181.7,127.1 M182.7,126.2
				c-0.1,0.1,0.1,0.5,0.3,0.3C183.1,126.4,182.9,126,182.7,126.2"/>
			<path fill="#FFFFFF" d="M198.2,125.2c-0.6,0.7-1.9,0.4-2.7,0.9c-1.2-0.4-1.8-1.8-2.6-2.7c-0.5-0.1-1,0-1.7,0.2
				c-0.7,0.9,0.2,2.1,0.3,3.3c-0.7,0.5-2.5,1-3.4,0.9c-0.9-2.2-1.1-5.3-2-7.8c-0.1-0.3-0.3-0.4-0.4-0.7c-0.1-0.5-0.1-1.1-0.2-1.7
				c-0.3-1.3-1.1-2.3-0.7-3.6c0.6-0.5,2.4-0.7,3.7-1.1c2.6-0.6,4.7-0.9,6.4,0.3c0.8,0.7,1.2,1.4,1.9,2.5c0.1,1.2,0.3,2.6,0.1,3.8
				c-0.4,0.7-0.9,1.3-1.2,2.1C196.5,123,197.8,123.5,198.2,125.2 M186.5,115c-0.2,0.1-0.4,0.1-0.3,0.3
				C186.3,115.4,186.5,115.2,186.5,115 M186.2,116.1l0.3-0.1l-0.1-0.2l-0.3,0.1L186.2,116.1z M186.9,116.7c0,0,0,0.1-0.1,0.3
				c-0.1,0-0.1,0.1-0.1,0.3c0.1,0.1,0.2-0.1,0.3-0.1c0-0.1,0-0.2,0.1-0.3c0-0.1,0-0.6-0.2-0.7c0,0.2,0,0.2-0.1,0.3
				c0-0.2-0.3,0-0.3-0.2h-0.1c0.1,0.1-0.1,0.1,0,0.3C186.5,116.7,186.8,116.6,186.9,116.7 M186.9,115h-0.1c0,0.2-0.1,0.1,0,0.3
				C187,115.3,187,115.2,186.9,115 M186.8,118.2c0.2,0,0.3-0.1,0.2-0.3l-0.3,0.1L186.8,118.2z M187.4,119.8c-0.2,0-0.3,0.1-0.4,0.2
				C187.1,120.2,187.6,120.1,187.4,119.8 M187.6,118.6c0-0.3-0.1-0.4-0.3-0.3c0,0.2-0.3,0.4-0.2,0.5
				C187.4,118.9,187.5,118.7,187.6,118.6 M187.2,119.1c-0.1,0.1-0.1,0.4,0.1,0.3C187.4,119.4,187.4,119,187.2,119.1 M188.1,119.8
				l-0.1-0.3c-0.2,0-0.3,0.1-0.2,0.3C187.9,119.7,187.9,119.8,188.1,119.8 M188.5,122.6c-0.2,0-0.1,0.1-0.2,0.2
				c-0.1,0-0.1,0-0.2,0.1c0,0.2,0.1,0.4,0.3,0.3c0-0.1,0-0.2,0-0.3c0.2,0,0.1-0.2,0.2-0.2c-0.1-0.3-0.2-0.5-0.4-0.5
				c-0.1,0.1-0.2,0.2-0.1,0.4C188.3,122.5,188.4,122.5,188.5,122.6 M188.4,124.2c0,0.3,0.2,0.5,0.5,0.4
				C188.9,124.3,188.7,124.2,188.4,124.2 M188.9,123.1c-0.1,0-0.1,0-0.2-0.1c0.1,0.1,0,0.2,0,0.2
				C188.8,123.3,188.9,123.2,188.9,123.1 M189.4,125.2c0-0.5-0.5-0.2-0.4,0.1C189.2,125.2,189.3,125.3,189.4,125.2 M193,116.2
				c-0.7-0.9-2.6-0.8-4,0.2c0.1,1.1,0.5,3,1,4.1c1,0.2,2.7-0.4,3.3-1.1C193.9,118.5,193.6,116.9,193,116.2 M189.5,126.1
				c0,0.2,0.2,0.1,0.3,0.1C189.8,126,189.7,126,189.5,126.1 M189.9,125.3c-0.2,0-0.2,0.1-0.2,0.2
				C189.9,125.5,189.9,125.4,189.9,125.3 M193.8,121c0-0.1-0.1-0.2-0.2-0.3C193.4,120.9,193.6,120.9,193.8,121 M194.3,120.4
				c-0.3-0.1-0.4,0-0.5-0.2c-0.2,0.3,0.3,0.2,0.3,0.4C194.3,120.7,194.3,120.6,194.3,120.4 M194.2,122.3c-0.2,0.1-0.2,0-0.3,0.2
				c0,0,0,0.1,0.1,0.1C194.1,122.7,194.4,122.5,194.2,122.3 M194.1,121.1c0-0.1,0-0.1,0.1-0.1c-0.1-0.1-0.2-0.1-0.3-0.1
				C193.9,121,193.9,121.1,194.1,121.1 M194.2,116.1c-0.1,0-0.2,0.2-0.1,0.2C194.1,116.2,194.3,116.2,194.2,116.1 M194.1,123.2
				c0.1,0.3,0.4,0.4,0.7,0.1C194.6,123.2,194.4,123.2,194.1,123.2 M194.5,120.3l0.1-0.3c-0.1-0.1-0.2-0.1-0.4-0.1
				C194.2,120.1,194.4,120.2,194.5,120.3 M194.8,122.8c0,0-0.1,0-0.2,0c0,0.1,0,0.1-0.1,0.2C194.7,122.9,194.8,122.9,194.8,122.8
				 M194.8,118.9c0-0.1,0-0.1,0-0.2c-0.1,0-0.2,0.1-0.3,0.1C194.5,119,194.7,118.9,194.8,118.9 M195.4,119.2
				c-0.3-0.1-0.4,0.2-0.6,0.4C195.1,119.6,195.3,119.5,195.4,119.2 M195,120c0.1-0.1,0-0.1,0-0.2c-0.1,0-0.1,0-0.2,0
				C194.8,119.9,194.8,119.9,195,120 M195,119.2c0-0.1,0-0.1,0.1-0.2C194.8,118.9,194.8,119.2,195,119.2 M195.2,118.8
				c0.1,0,0.1-0.3,0.2-0.4c-0.1-0.2-0.3,0.1-0.3-0.1C194.8,118.5,195.1,118.7,195.2,118.8 M195.5,124c-0.3-0.4-0.6,0-0.3,0.3
				C195.3,124.1,195.4,124.1,195.5,124 M195.6,123.3c0.1-0.1-0.1-0.2-0.2-0.2c-0.1,0.1,0,0.1-0.1,0.3
				C195.4,123.4,195.4,123.4,195.6,123.3C195.5,123.3,195.5,123.3,195.6,123.3 M195.9,123.8c-0.1,0.1-0.2,0.2-0.1,0.3
				C196,124,196,123.9,195.9,123.8 M196,124.7c0.1,0.1,0.2,0,0.3-0.1C196.2,124.5,196.2,124.6,196,124.7"/>
			<path fill="#FFFFFF" d="M210,110.7c-1.2,0.5-2.3,0.9-3.9,1.2c-0.7,0.1-1.4,0.1-1.7,0.3c-0.7,0.4-0.9,1.5-0.1,2.4
				c1.2,0.1,3.3-1,4.7-0.9c0.6,0.6,0.6,2,0.8,2.6c-1.1,1.1-3.8,0.7-4.7,1.8c0,0.5,0.3,1.1,0.5,1.6c0.5,0.1,1.1,0.2,1.7,0
				c0.3-0.1,0.5-0.3,0.8-0.4c0.6-0.2,1.4-0.1,2.2-0.3c0.9-0.3,1.5-0.7,2-0.3c0.6,0.4,0.6,1.7,0.7,2.7c-0.6,0.6-1.5,0.5-2.3,0.7
				c-0.4,0.1-0.8,0.4-1.2,0.5c-1.2,0.3-2.5,0.3-3.7,0.7c-1.1,0.3-2,1-3,0.6c-0.9-4.5-2.6-9-3.2-13.6c0-0.2,0.1-0.3,0.2-0.4
				c3.2-0.6,6.3-1.8,9.6-2.3C209.9,108.3,210.1,109.9,210,110.7 M201.7,112.2c0,0-0.1,0-0.2,0c0.1,0.2-0.1,0.3,0,0.4
				C201.8,112.6,202,112.4,201.7,112.2 M201.7,111.7c0.1,0,0.3,0.1,0.4,0c0-0.2-0.1-0.3-0.3-0.4c-0.2,0.1,0,0.2-0.1,0.2
				C201.7,111.6,201.7,111.6,201.7,111.7 M202.1,112.8c-0.1,0.1-0.2,0.2-0.3,0.2c0.1,0.2,0.2,0.3,0.3,0.3
				C202,113.2,202.3,113.1,202.1,112.8 M202.2,114.1c-0.2-0.1-0.5,0.1-0.3,0.4C202.1,114.4,202.4,114.3,202.2,114.1 M202.3,115.5
				c0.2,0,0.2-0.2,0.3-0.3c0.1,0.2,0.2,0.1,0.3,0.3c0.4-0.3-0.2-0.6-0.4-0.8c-0.1,0.1-0.1,0.1-0.2,0.1
				C202.5,115.1,202.1,115.3,202.3,115.5 M202.8,116c0,0.1,0.1,0.2,0.1,0.1c0-0.3-0.4-0.1-0.6-0.1c0,0.1,0.1,0.2,0.2,0.3
				C202.6,116.2,202.6,116.1,202.8,116 M202.9,111.1c0-0.1,0-0.1-0.1-0.1c-0.1,0.1-0.2,0.2-0.1,0.3
				C202.7,111.3,202.8,111.2,202.9,111.1 M202.9,117.4c-0.1,0-0.1,0-0.2,0.1c0.1,0.2,0.2,0.1,0.3,0.2c-0.2,0.1,0.2,0.2,0.1,0.2
				c0,0.1-0.2,0.1-0.3,0.1c0.2,0.4,0.5,0.1,0.8,0c-0.1-0.1,0-0.1-0.1-0.3c0,0,0.1,0,0.1-0.1c-0.1,0-0.2,0-0.2,0
				c0.1-0.1-0.1-0.1-0.1-0.2c0-0.2,0-0.3-0.1-0.5c-0.1,0.1-0.3,0-0.4,0.1c0.1,0,0.2,0.1,0.2,0.1
				C202.9,117.3,202.9,117.3,202.9,117.4 M202.9,116.2c0,0.1,0.1,0.3,0.2,0.1C203,116.2,203,116.2,202.9,116.2 M203.3,118.7
				c-0.1,0-0.1,0-0.1,0.1c0.1,0.1,0.2,0.3,0.3,0.2C203.4,119,203.4,118.9,203.3,118.7 M203.5,116.9c-0.1,0-0.2-0.1-0.3,0
				c0.1,0.1,0.2,0.2,0.3,0.2C203.4,117,203.5,117,203.5,116.9 M203.5,116.4c0.1,0.1,0.1,0.2,0.2,0c-0.1-0.2-0.3-0.3-0.4-0.2
				C203.2,116.5,203.4,116.4,203.5,116.4 M203.7,120c0-0.1,0.1-0.2,0.1-0.4c-0.2,0-0.3,0.1-0.5,0.2c0.1,0.2,0.2,0.1,0.2,0.1
				C203.6,120,203.6,120.1,203.7,120 M203.7,122c0.1-0.1,0.2-0.1,0.1-0.2c-0.2,0.1-0.3,0.2-0.2,0.4
				C203.7,122.2,203.7,122.1,203.7,122 M204.6,122.1c-0.2,0-0.3-0.2-0.4,0c0.1,0.3,0.1,0.5,0.1,0.7
				C204.6,122.7,204.6,122.4,204.6,122.1 M205.5,122.5c0-0.1,0.1-0.2,0-0.4c-0.2,0.1-0.4,0.1-0.6,0.2
				C205,122.6,205.2,122.5,205.5,122.5 M206.3,115.9c0,0-0.1-0.1-0.1-0.2c-0.2,0-0.3,0.2-0.2,0.4
				C206.1,116.1,206.2,115.9,206.3,115.9 M206.8,115.4c-0.1-0.1-0.3,0.1-0.2,0.2C206.7,115.7,207,115.6,206.8,115.4"/>
			<path fill="#FFFFFF" d="M217.4,106.9c0.7,2.1,1.2,5.1,1.7,7.2c0.2,0.8,0.2,1.8,0.9,2.1c1.6-0.1,3.8-1,5.4-1.1
				c0.6,0.7,0.9,1.9,0.9,2.8c-0.4,0.7-1.3,0.5-2.1,0.7c-2.2,0.5-4.8,1.6-7.1,1.6c-0.5-0.5-0.4-1.1-0.6-1.8
				c-0.9-3.9-2.3-7.8-2.9-11.6c0.4-0.7,2.1-1.1,3.2-1.1C216.9,106.1,217.2,106.5,217.4,106.9 M215.7,108.8c0.1,0.2,0.2,0.1,0.1,0.3
				c0.2,0,0.5,0.2,0.6-0.1c-0.1,0-0.2-0.2-0.3-0.3c0-0.1-0.1-0.1-0.2-0.1c-0.1,0-0.1-0.1-0.1-0.1c0-0.1-0.1-0.2-0.1-0.2
				c-0.1,0-0.3,0-0.5,0c0,0.3,0.2,0.4,0.4,0.4C215.6,108.8,215.8,108.7,215.7,108.8 M216.2,109.7c0.1-0.2-0.1-0.2-0.2-0.4
				c-0.2,0-0.1,0.2-0.3,0.1C215.7,109.7,215.9,109.8,216.2,109.7 M216.8,111.2c-0.2,0.1-0.3,0.2-0.2,0.5
				C216.9,111.7,216.7,111.4,216.8,111.2 M217.1,111.5c-0.1-0.1-0.3,0-0.3,0.1C217,111.7,217.1,111.7,217.1,111.5 M217.5,114.9
				c0.1,0,0.2,0,0.2-0.1c-0.2-0.1-0.5-0.1-0.9,0c0,0.3,0.2,0.2,0.2,0.4C217.3,115.2,217.4,115,217.5,114.9 M217.7,113.8
				c0-0.1-0.1-0.1-0.1-0.3c-0.3,0.1-0.4,0.2-0.4,0.4C217.5,114.1,217.5,113.8,217.7,113.8 M217.7,116.5c-0.1-0.1,0-0.4-0.2-0.4
				c-0.1,0.2-0.2,0.2-0.3,0.5C217.4,116.6,217.5,116.6,217.7,116.5 M217.4,117.9l0.3-0.1c-0.1-0.2-0.2-0.3-0.3-0.2V117.9z
				 M218.4,116l-0.1-0.4c-0.2-0.1-0.4-0.1-0.6,0c0.1,0.2,0.2,0.3,0.4,0.5L218.4,116z M219.9,118.5c-0.3,0.1-0.8,0-0.7,0.4
				C219.6,118.9,219.8,118.8,219.9,118.5 M221.1,118.1l-0.1-0.4c-0.3,0.1-0.4,0.2-0.5,0.4C220.7,118.1,220.8,118.2,221.1,118.1
				 M222.1,118.1c-0.1-0.2,0-0.5-0.3-0.3c0.1,0.3-0.2,0.2,0,0.4L222.1,118.1z"/>
			<path fill="#FFFFFF" d="M234.1,105.5c-0.3-0.2-0.1-0.5-0.5-0.6c-1.4-0.7-3.9,0.5-3.5,1.7c0.3,0.8,2.1,0.8,3.3,0.9
				c0.6,0.1,1.1,0.2,1.7,0.3c1.9,0.3,3.9,0.5,4.5,3c0.2,0.7,0,1.5-0.1,2.2c-0.1,0.3-0.1,0.6-0.2,0.7c-0.3,0.6-1,1.1-1.7,1.6
				c-0.8,0.6-2,1.2-3.3,1.4c-3.1,0.5-5.7-0.2-6.1-3.3c0.4-0.5,2-0.9,2.7-0.9c0.8,0.1,1,1,2,1.1c1.2,0.1,3.4-0.4,3.1-1.7
				c-0.2-1-1.9-1-3.1-1.1c-1.8-0.2-4-0.3-5.3-1.3c-0.7-0.5-0.8-1-1.1-2.1c-0.2-1-0.4-1.6-0.1-2.5c0.8-1.5,2.8-2.9,5.9-3.3
				c1.1-0.1,2.1,0.2,3,0.2c0.9,0.6,2.2,1.5,2.3,3.1C236.9,105.7,234.7,106.1,234.1,105.5 M228.1,106.2l-0.1-0.4
				c-0.2,0-0.1,0.1-0.3,0.2C227.7,106.2,227.9,106.2,228.1,106.2 M227.8,107.3c-0.1,0.1-0.1,0.4,0.2,0.3
				C227.9,107.5,228,107.2,227.8,107.3 M228.5,105.4c-0.2-0.1,0.1-0.3,0-0.5l-0.1-0.2c0-0.1-0.1,0-0.2,0c-0.1,0.3-0.2,0.5-0.2,0.8
				C228.1,105.4,228.4,105.5,228.5,105.4 M228.6,105.5c-0.2,0-0.3,0.1-0.3,0.3C228.5,105.7,228.7,105.7,228.6,105.5 M228.5,107.5
				c0,0.2,0.1,0.2,0.2,0.2C228.8,107.6,228.7,107.4,228.5,107.5 M228.9,106.9c0,0.2,0.2,0.1,0.2,0.3c0.2-0.1,0.2-0.2,0.2-0.3
				c-0.1-0.2-0.3-0.1-0.3-0.3c0-0.2,0.1-0.4-0.1-0.4c0,0.2-0.1,0.3-0.3,0.3C228.6,106.7,228.8,106.7,228.9,106.9 M228.8,104.1
				c0-0.1-0.1-0.2-0.2-0.2c0,0.1,0,0.1,0,0.2H228.8z M229.1,108c-0.1,0-0.1,0-0.2,0c0.1,0.2-0.2,0.3,0,0.3
				C229.1,108.4,229.1,108.2,229.1,108 M229.8,108.6c0-0.1-0.1-0.2-0.3-0.1c0,0,0,0.1,0,0.2C229.6,108.7,229.7,108.7,229.8,108.6
				 M233.4,115.3c0-0.2-0.1-0.3-0.1-0.3c-0.2,0-0.1,0.1-0.3,0.2C232.9,115.4,233.2,115.2,233.4,115.3 M234.1,115.3
				c-0.1,0-0.2,0.1-0.3,0.1C233.8,115.7,234.2,115.5,234.1,115.3 M234.8,115.3c-0.1,0-0.1,0-0.2,0c-0.1,0.1,0.1,0.3,0.2,0.3
				C234.9,115.5,234.8,115.4,234.8,115.3 M235.5,103.8c0,0.2,0.3,0.1,0.1,0C235.6,103.8,235.5,103.7,235.5,103.8 M236,114.6
				c-0.1-0.1-0.3,0-0.2,0.2C235.9,114.7,235.9,114.6,236,114.6 M235.8,104.1c0.1,0,0.2,0,0.3,0C236.1,103.8,235.7,104,235.8,104.1
				 M236.3,103.7c0-0.2-0.1-0.1-0.2-0.2c0,0.1,0,0.1,0,0.2H236.3z M236.8,109.6c-0.1,0-0.1,0-0.2,0c0,0.2,0.1,0.4,0.2,0.3
				C237,109.9,236.8,109.7,236.8,109.6 M237.4,112.5c-0.1-0.2-0.2-0.1-0.4-0.1c0,0.2,0.1,0.1,0.1,0.3
				C237.3,112.6,237.3,112.5,237.4,112.5 M237.4,110c0.1,0.1,0,0.2,0.2,0.1c0.1-0.2-0.3-0.5-0.4-0.3
				C237.2,110,237.3,109.9,237.4,110 M237.2,111.8c-0.1,0.1-0.1,0.1-0.1,0.2c0.2,0.1,0.3,0.1,0.6,0c0-0.1,0-0.6-0.3-0.5
				c0,0.1,0,0.1,0,0.1C237.3,111.7,237.3,111.7,237.2,111.8 M237.3,111l0.1,0.3c0.2,0,0.1-0.1,0.3-0.1c-0.1-0.2,0.1-0.3,0.1-0.4
				c-0.2-0.1-0.3-0.1-0.3-0.2c0.2,0,0-0.2,0-0.3c-0.4,0.1-0.1,0.3,0,0.6C237.4,110.9,237.3,110.9,237.3,111 M238.1,110.3
				c0,0.2,0,0.4,0.2,0.3C238.3,110.5,238.3,110.2,238.1,110.3 M238.4,111.3c-0.3,0-0.2,0.6,0.1,0.4L238.4,111.3z"/>
			<path fill="#FFFFFF" d="M251.3,100.3c-1.2,0.5-2.3,0.9-3.9,1.2c-0.7,0.1-1.4,0.1-1.7,0.3c-0.7,0.4-0.9,1.5-0.1,2.4
				c1.2,0.1,3.3-1,4.7-0.9c0.6,0.6,0.6,2,0.8,2.6c-1.1,1.1-3.8,0.7-4.7,1.8c0,0.5,0.3,1.1,0.5,1.6c0.5,0.1,1.1,0.2,1.7,0
				c0.3-0.1,0.5-0.3,0.8-0.4c0.6-0.2,1.4-0.1,2.2-0.3c0.9-0.3,1.5-0.7,2-0.3c0.6,0.4,0.6,1.7,0.7,2.7c-0.6,0.6-1.5,0.5-2.3,0.7
				c-0.4,0.1-0.8,0.4-1.2,0.5c-1.2,0.3-2.5,0.3-3.7,0.7c-1.1,0.3-2,1-3,0.6c-0.9-4.5-2.6-9-3.2-13.6c0-0.2,0.1-0.3,0.2-0.4
				c3.2-0.6,6.3-1.8,9.6-2.3C251.2,97.8,251.4,99.4,251.3,100.3 M243,101.7c0,0-0.1,0-0.2,0c0.1,0.2-0.1,0.3,0,0.4
				C243.1,102.1,243.3,102,243,101.7 M243,101.3c0.1,0,0.3,0.1,0.4,0c0-0.2-0.1-0.3-0.3-0.4c-0.2,0.1,0,0.2-0.1,0.2
				C243,101.1,243,101.2,243,101.3 M243.4,102.4c-0.1,0.1-0.2,0.2-0.3,0.2c0.1,0.2,0.2,0.3,0.3,0.3
				C243.3,102.7,243.6,102.6,243.4,102.4 M243.5,103.6c-0.2-0.1-0.5,0.1-0.3,0.4C243.4,103.9,243.7,103.8,243.5,103.6 M243.6,105
				c0.2,0,0.2-0.2,0.3-0.3c0.1,0.2,0.2,0.1,0.3,0.3c0.4-0.3-0.2-0.6-0.4-0.8c-0.1,0.1-0.1,0.1-0.2,0.1
				C243.8,104.6,243.4,104.8,243.6,105 M244.1,105.6c0,0.1,0.1,0.2,0.1,0.1c0-0.3-0.4-0.1-0.6-0.1c0,0.1,0.1,0.2,0.2,0.3
				C243.9,105.7,243.9,105.6,244.1,105.6 M244.2,100.7c0-0.1,0-0.1-0.1-0.1c-0.1,0.1-0.2,0.2-0.1,0.3
				C244,100.8,244.1,100.7,244.2,100.7 M244.2,106.9c-0.1,0-0.1,0-0.2,0.1c0.1,0.2,0.2,0.1,0.3,0.2c-0.2,0.1,0.2,0.2,0.1,0.2
				c0,0.1-0.2,0.1-0.3,0.1c0.2,0.4,0.5,0.1,0.8,0c-0.1-0.1,0-0.1-0.1-0.3c0,0,0.1,0,0.1-0.1c-0.1,0-0.2,0-0.2,0
				c0.1-0.1-0.1-0.1-0.1-0.2c0-0.2,0-0.3-0.1-0.5c-0.1,0.1-0.3,0-0.4,0.1c0.1,0,0.2,0.1,0.2,0.1
				C244.2,106.8,244.2,106.8,244.2,106.9 M244.2,105.8c0,0.1,0.1,0.3,0.2,0.1C244.3,105.8,244.3,105.7,244.2,105.8 M244.6,108.3
				c-0.1,0-0.1,0-0.1,0.1c0.1,0.1,0.2,0.3,0.3,0.2C244.7,108.5,244.7,108.4,244.6,108.3 M244.8,106.4c-0.1,0-0.2-0.1-0.3,0
				c0.1,0.1,0.2,0.2,0.3,0.2C244.7,106.5,244.8,106.5,244.8,106.4 M244.8,105.9c0.1,0.1,0.1,0.2,0.2,0c-0.1-0.2-0.3-0.3-0.4-0.2
				C244.5,106,244.7,106,244.8,105.9 M245,109.6c0-0.1,0.1-0.2,0.1-0.4c-0.2,0-0.3,0.1-0.5,0.2c0.1,0.2,0.2,0.1,0.2,0.1
				C244.9,109.5,244.9,109.6,245,109.6 M245,111.5c0.1-0.1,0.2-0.1,0.1-0.2c-0.2,0.1-0.3,0.2-0.2,0.4C245,111.8,245,111.6,245,111.5
				 M245.9,111.6c-0.2,0-0.3-0.2-0.4,0c0.1,0.3,0.1,0.5,0.1,0.7C245.9,112.2,245.8,111.9,245.9,111.6 M246.8,112
				c0-0.1,0.1-0.2,0-0.4c-0.2,0.1-0.4,0.1-0.6,0.2C246.3,112.1,246.5,112.1,246.8,112 M247.6,105.4c0,0-0.1-0.1-0.1-0.2
				c-0.2,0-0.3,0.2-0.2,0.4C247.4,105.6,247.5,105.4,247.6,105.4 M248.1,105c-0.1-0.1-0.3,0.1-0.2,0.2
				C248,105.2,248.3,105.1,248.1,105"/>
			<path fill="#FFFFFF" d="M268.4,107.4c-0.6,0.7-1.9,0.4-2.7,0.9c-1.2-0.4-1.8-1.8-2.6-2.7c-0.5-0.1-1,0-1.7,0.2
				c-0.7,0.9,0.2,2.1,0.3,3.3c-0.7,0.5-2.5,1-3.4,0.9c-0.9-2.2-1.1-5.3-2-7.8c-0.1-0.3-0.3-0.4-0.4-0.7c-0.1-0.5-0.1-1.1-0.2-1.7
				c-0.3-1.3-1.1-2.3-0.7-3.6c0.6-0.5,2.4-0.7,3.7-1.1c2.6-0.6,4.7-0.9,6.4,0.3c0.8,0.7,1.2,1.4,1.9,2.5c0.1,1.2,0.3,2.6,0.1,3.8
				c-0.4,0.7-0.9,1.3-1.2,2.1C266.7,105.3,268,105.7,268.4,107.4 M256.6,97.2c-0.2,0.1-0.4,0.1-0.3,0.3
				C256.4,97.6,256.7,97.4,256.6,97.2 M256.4,98.3l0.3-0.1l-0.1-0.2l-0.3,0.1L256.4,98.3z M257,98.9c0,0,0,0.1-0.1,0.3
				c-0.1,0-0.1,0.1-0.1,0.3c0.1,0.1,0.2-0.1,0.3-0.1c0-0.1,0-0.2,0.1-0.3c0-0.1,0-0.6-0.2-0.7c0,0.2,0,0.2-0.1,0.3
				c0-0.2-0.3,0-0.3-0.2h-0.1c0.1,0.1-0.1,0.1,0,0.3C256.7,98.9,256.9,98.8,257,98.9 M257.1,97.2H257c0,0.2-0.1,0.1,0,0.3
				C257.1,97.5,257.2,97.4,257.1,97.2 M257,100.5c0.2,0,0.3-0.1,0.2-0.3l-0.3,0.1L257,100.5z M257.6,102c-0.2,0-0.3,0.1-0.4,0.2
				C257.2,102.4,257.8,102.3,257.6,102 M257.7,100.8c0-0.3-0.1-0.4-0.3-0.3c0,0.2-0.3,0.4-0.2,0.5
				C257.5,101.1,257.6,101,257.7,100.8 M257.4,101.3c-0.1,0.1-0.1,0.4,0.1,0.3C257.6,101.6,257.5,101.2,257.4,101.3 M258.2,102
				l-0.1-0.3c-0.2,0-0.3,0.1-0.2,0.3C258.1,101.9,258.1,102,258.2,102 M258.6,104.9c-0.2,0-0.1,0.1-0.2,0.2c-0.1,0-0.1,0-0.2,0.1
				c0,0.2,0.1,0.4,0.3,0.3c0-0.1,0-0.2,0-0.3C258.7,105.2,258.6,105,258.6,104.9c0-0.2-0.1-0.4-0.3-0.4c-0.1,0.1-0.2,0.2-0.1,0.4
				C258.4,104.7,258.6,104.7,258.6,104.9 M258.6,106.4c0,0.3,0.2,0.5,0.5,0.4C259.1,106.6,258.8,106.4,258.6,106.4 M259,105.3
				c-0.1,0-0.1,0-0.2-0.1c0,0.1,0,0.2,0,0.2C259,105.5,259,105.4,259,105.3 M259.6,107.4c0-0.5-0.5-0.2-0.4,0.1
				C259.3,107.5,259.4,107.5,259.6,107.4 M263.2,98.4c-0.7-0.9-2.6-0.8-4,0.2c0.1,1.1,0.5,3,1,4.1c1,0.2,2.7-0.4,3.3-1.1
				C264,100.7,263.7,99.1,263.2,98.4 M259.7,108.3c0,0.2,0.2,0.1,0.3,0.1C260,108.2,259.9,108.2,259.7,108.3 M260,107.5
				c-0.2,0-0.2,0.1-0.2,0.2C260,107.7,260.1,107.6,260,107.5 M263.9,103.2c0-0.1-0.1-0.2-0.2-0.3
				C263.5,103.1,263.7,103.1,263.9,103.2 M264.5,102.7c-0.3-0.1-0.4,0-0.5-0.2c-0.2,0.3,0.3,0.2,0.3,0.4
				C264.4,102.9,264.5,102.8,264.5,102.7 M264.3,104.5c-0.2,0.1-0.2,0-0.3,0.2c0,0,0,0.1,0.1,0.1
				C264.3,104.9,264.5,104.7,264.3,104.5 M264.3,103.3c0-0.1,0-0.1,0.1-0.1c-0.1-0.1-0.2-0.1-0.3-0.1
				C264.1,103.2,264.1,103.3,264.3,103.3 M264.3,98.3c-0.1,0-0.2,0.2-0.1,0.2C264.2,98.4,264.4,98.4,264.3,98.3 M264.3,105.5
				c0.1,0.3,0.4,0.4,0.7,0.1C264.8,105.4,264.6,105.4,264.3,105.5 M264.7,102.5l0.1-0.3c-0.1-0.1-0.3-0.1-0.4-0.1
				C264.4,102.3,264.5,102.4,264.7,102.5 M265,105c0,0-0.1,0-0.2,0c0,0.1,0,0.1-0.1,0.2C264.8,105.2,264.9,105.1,265,105 M265,101.1
				c0-0.1,0-0.1,0-0.2c-0.1,0-0.2,0.1-0.3,0.1C264.7,101.3,264.9,101.2,265,101.1 M265.5,101.4c-0.3-0.1-0.4,0.2-0.6,0.4
				C265.2,101.8,265.4,101.8,265.5,101.4 M265.1,102.2c0.1-0.1,0-0.1,0-0.2c0,0-0.1,0-0.2,0C264.9,102.1,265,102.1,265.1,102.2
				 M265.1,101.4c0-0.1,0-0.1,0.1-0.2C265,101.1,264.9,101.4,265.1,101.4 M265.3,101c0.1,0,0.1-0.3,0.2-0.4
				c-0.1-0.2-0.3,0.1-0.3-0.1C265,100.7,265.3,100.9,265.3,101 M265.7,106.2c-0.3-0.4-0.6,0-0.3,0.3
				C265.5,106.3,265.6,106.3,265.7,106.2 M265.7,105.5c0.1-0.1-0.1-0.2-0.2-0.2c-0.1,0.1,0,0.1-0.1,0.3
				C265.5,105.6,265.6,105.6,265.7,105.5L265.7,105.5 M266.1,106.1c-0.1,0.1-0.2,0.2-0.1,0.3C266.2,106.2,266.2,106.1,266.1,106.1
				 M266.2,106.9c0.1,0.1,0.2,0,0.3-0.1C266.4,106.7,266.3,106.8,266.2,106.9"/>
			<path fill="#FFFFFF" d="M45.6,191.7c0.4,1.4,1.3,2.3,0.4,3.5c-1.1,0.3-2.9,1.1-4.3,1.1c-1.6-2.3-1.7-5.7-2.6-8.9
				c-1.1-3.7-2.5-8.2-2.7-12.2c1.4-0.7,3.3-1.2,4.8-1.1C42.8,178.9,44,186.2,45.6,191.7 M39.4,177c0-0.2-0.1-0.3-0.3-0.4
				c0,0.3-0.4,0.2-0.2,0.5L39.4,177z M39.5,178.9c0-0.3-0.1-0.5-0.4-0.5c-0.1,0.1,0,0.3,0.1,0.6L39.5,178.9z M39.2,182.9
				c0.5,0,0.5-0.3,0.6-0.7c-0.2,0-0.3-0.1-0.5,0C39.3,182.5,39.1,182.6,39.2,182.9 M39.4,183.5c0,0.5,0.2,1.2,0.9,0.8
				c0.1-0.4-0.4-0.3-0.4-0.9L39.4,183.5z M40.8,183.7c-0.1-0.3,0.1-0.6-0.1-0.9c0.2-0.2,0.5-0.3,0.4-0.6c-0.3-0.2-0.5-0.5-0.5-1
				c-0.3,0-0.6,0.2-0.9,0.1c0.1,0.3,0.4,0.3,0.4,0.7C40.2,182.4,40,183.8,40.8,183.7 M40.6,185.3c0-0.2,0.2-0.2,0-0.5
				c-0.3,0-0.7,0.1-0.6,0.5C40.3,185.2,40.3,185.4,40.6,185.3 M40.9,187.3c-0.1,0.3,0.3,0.7,0.5,0.4
				C41.3,187.5,41.1,187.4,40.9,187.3 M41.2,183.6c0.2,0.2,0,0.3,0,0.5C41.8,184.1,41.7,183.3,41.2,183.6 M41.5,190.4
				c0,0.5,0.3,0.8,0.8,0.7C42.2,190.6,41.9,190.4,41.5,190.4 M42.1,186.4l-0.4,0.1c0,0.3,0.1,0.4,0.3,0.3
				C41.9,186.5,42.1,186.6,42.1,186.4 M42.4,188.7c-0.3,0.1-0.4-0.1-0.6,0.1c0,0.1,0,0.2,0,0.2C42,189.3,42.5,189.1,42.4,188.7
				 M43,191.9c-0.1-0.8-0.8-0.4-0.6,0.2C42.6,192,42.8,192.1,43,191.9 M43.2,193.3c0.1,0.3,0.3,0.2,0.5,0.2
				C43.7,193.1,43.5,193.2,43.2,193.3 M43.7,192.1c-0.3,0-0.4,0.1-0.3,0.3C43.7,192.4,43.8,192.3,43.7,192.1"/>
			<path fill="#FFFFFF" d="M60.2,188.6c-0.2-0.9-0.7-1.6-0.9-2.4c-0.9-3.3-1.4-7-2.3-10.3c-0.5-1.9-1.4-3.8-1.3-5.6
				c0.9-1,3.5-1,5.7-1.6c3.1-0.8,5.8-1.7,8-1.2c3.2,0.8,5.7,5,4.1,8.4c-0.3,0.6-0.6,0.7-0.5,1.3c0.2,0.8,1.6,1.1,2.1,1.8
				c1.2,1.4,1.9,4.5,1.1,6.3c-0.5,1.1-2.5,2.9-4.1,3.5c-3.1,1.3-7.3,1.5-11.1,2.5C60.2,190.6,60.4,189.5,60.2,188.6 M57.8,171.5
				l-0.4,0.1c0,0.3,0.2,0.4,0.5,0.3L57.8,171.5z M58.8,174.7c-0.3,0-0.3,0.2-0.4,0.4C58.7,175,58.7,174.9,58.8,174.7 M59.5,175.5
				c-0.3-0.2-0.8,0-0.7,0.5C59.3,176,59.5,175.8,59.5,175.5 M60.6,178.5c-0.5-0.2-0.9-0.3-1.6-0.2l0.1,0.4c0.3,0.1,0.3-0.3,0.7-0.4
				c0,0.3,0.2,0.2,0.2,0.4C60.2,178.6,60.6,178.7,60.6,178.5 M59.3,176.9c0,0,0,0-0.1,0.1c-0.1,0.2-0.2,0.3-0.2,0.6c0.3,0,0.6,0,1,0
				c0-0.3-0.1-0.7-0.1-1.1c-0.2-0.1-0.3,0.2-0.4,0.3C59.3,176.8,59.3,176.9,59.3,176.9 M60.2,181c-0.2-0.1-0.2-0.6-0.6-0.4
				c0.2,0.4-0.1,0.5-0.1,0.8C59.8,181.3,60.1,181.3,60.2,181 M60.6,180.6c-0.1,0.3,0.1,0.7,0,1c0.2,0,0.4,0.1,0.4,0.3
				c-0.2,0.5,0.4,0.8,0.8,0.7c0.3-0.4-0.2-0.8-0.2-1.4c-0.5,0.3-0.4-0.7-0.8-0.6C60.8,180.5,60.8,180.5,60.6,180.6 M61.3,183.8
				c-0.2-0.3,0-0.3,0-0.6c-0.2-0.1-0.3,0.1-0.6,0.2C60.8,183.7,61,183.8,61.3,183.8 M62.2,183.9c0.1-0.1,0.4,0,0.2-0.3
				c-0.1-0.1-0.3-0.1-0.5,0c0.1,0.3-0.1,0.3,0,0.5C62.1,184,62.2,183.9,62.2,183.9 M67,172.3c-1.1-0.2-3.8,0.8-4.7,1
				c-0.7,1,0.1,3.4,0.9,4.3c1.9-0.2,4.8-0.6,5.4-2.2C69.1,174.1,68.3,172.5,67,172.3 M62.1,184.8c0,0.3,0.1,0.6,0.4,0.4
				C62.4,185,62.4,184.7,62.1,184.8 M69.7,181.1c-1.4-0.4-4,0.1-5.4,0.9c-0.4,1.2,0.3,3.3,1.1,4.2c2.4,0,6-1.2,5.6-3.4
				C70.8,182.1,70.1,181.8,69.7,181.1 M66.5,179.9c0.3-0.2,0.4-0.5,0.1-0.8C66.4,179.4,66.3,179.6,66.5,179.9 M69.9,173.8
				c-0.2,0-0.3,0.1-0.3,0.2C69.9,174,70,174.1,69.9,173.8 M70.2,171.3c-0.1,0.2-0.2,0.8,0.3,0.7C70.3,171.7,70.5,171.4,70.2,171.3
				 M71.5,174.7c-0.1-0.3-0.3-0.2-0.3-0.5c-0.3,0.1-0.5,0.2-0.5,0.5C70.9,174.9,71.3,174.8,71.5,174.7 M71.2,173.2l-0.4,0.1
				c0,0.2,0.1,0.3,0.2,0.4C71.2,173.6,71.2,173.4,71.2,173.2 M72.3,180.8c0.4-0.2,0.3-0.4,0.5-0.6c-0.3-0.1-0.6-0.2-0.9-0.5
				C71.7,180,71.9,180.6,72.3,180.8 M72.8,186c-0.1-0.1-0.1-0.2-0.2-0.2c0,0.6-0.6,0.4-0.6,0.8c0,0,0.1,0,0.2,0.1
				C72.5,186.6,72.7,186.4,72.8,186 M73.5,184.8c0.1,0,0.2,0.1,0.2,0.2c0.2-0.4-0.1-0.4-0.3-0.6c0,0.1-0.2,0-0.2,0.1
				c-0.1,0.2-0.1,0.3-0.2,0.4c-0.2,0.2-0.5,0.2-0.7,0.5c0.1,0,0.2,0,0.3,0.1c0.1-0.3,0.4-0.3,0.7-0.3C73.4,185,73.4,185,73.5,184.8
				 M72.9,182.9c0,0.1-0.1,0.2-0.4,0.4c0.3,0.3,0.8,0.2,0.9-0.2C73.3,183,73.1,182.9,72.9,182.9 M73.5,182.2c0-0.3-0.5-0.9-0.7-0.5
				C72.8,182,73.2,182.1,73.5,182.2 M73.4,180.7c-0.2-0.1-0.3-0.1-0.4-0.2c-0.1,0.2,0.2,0.5,0.3,0.4
				C73.4,180.7,73.4,180.8,73.4,180.7 M74.1,185.3c-0.2-0.1-0.3,0-0.4,0.2c0.2,0.2,0.1,0,0.3,0.1C74.1,185.4,74,185.5,74.1,185.3
				 M73.8,182.7c-0.3,0.4,0.4,1,0.6,0.5C74.1,183.1,74.2,182.8,73.8,182.7"/>
			<path fill="#FFFFFF" d="M90.8,161.5c0.5,1.1,1.9,1.3,3,1.9c1.5,1.4,2.6,3.2,3.8,5.2c0.5,2.9,1.1,5.2,0.7,7.8
				c-0.8,4.5-3.8,7.1-9.7,8.6c-0.6,1.5-0.3,3.5-1.3,4.8c-1,0.1-2,0.5-2.8,0.2c-0.6-1.8,0.9-3.4,0.4-5c-0.3-1.3-1.7-1.2-2.6-1.8
				c-1.1-0.7-1.5-1.9-2.6-2.3c-1.8-3.8-2.8-7.4-2.5-10.4c0-0.6,0.4-1.2,0.6-1.8c0.4-1.5,0.6-2.4,1.7-3.6c1.1-1.1,3.1-2.4,5.3-3.2
				c0.7-0.2,1.4-0.1,2-0.5c1.3-1,0.7-3.4,1-4.7c0.9-0.5,2.2-1,3.2-0.6C91.9,157.6,90.1,160,90.8,161.5 M78.6,170.5
				c0.1,0.2,0.2,0.1,0.3,0.4c0,0-0.1,0.1,0,0.2c-0.3,0-0.3,0.2-0.5,0.3l0.1,0.5c0,0,0.1,0,0.1,0.1c0.1,0,0.2-0.1,0.3,0
				c0,0.2,0.2,0.1,0.2,0.2c0.2,0.4-0.2,0.5,0.1,0.9c0.1,0.1,0.6,0,0.6-0.2c-0.3-0.5,0.1-0.7,0.1-1.1c-0.2,0-0.3-0.1-0.4-0.2
				c-0.3,0.1-0.5,0-0.6,0c0-0.1,0.1-0.1,0.1-0.2c0-0.1,0-0.2,0-0.3c0.1-0.2,0.3-0.2,0.3-0.4c-0.1,0-0.1-0.1-0.1-0.2
				c-0.1-0.1-0.1,0-0.2-0.2c0.1-0.2,0.4-0.2,0.2-0.5c-0.1,0-0.1-0.1-0.3,0C78.9,170.1,78.6,170.1,78.6,170.5 M78.8,168.9l0.1,0.1
				c0,0-0.2,0.1-0.1,0.2c0.3,0,0.6,0.5,0.8,0.2c0-0.4-0.3-0.3-0.5-0.4c0.3-0.1,0-0.2-0.1-0.3c0.1-0.1,0.3,0,0.2-0.3
				c-0.2,0-0.3-0.1-0.5,0C79,168.6,78.7,168.7,78.8,168.9C78.8,168.8,78.8,168.8,78.8,168.9 M79.9,173.5c-0.3,0.2-0.7,0.3-0.5,0.8
				C79.8,174.1,80,173.9,79.9,173.5 M80,175.3c-0.1,0-0.1-0.1-0.3-0.1c0,0.3,0,0.6,0.1,1C80.3,176.1,80.3,175.5,80,175.3
				 M80.8,174.8c0.3-0.1,0.2-1-0.2-0.9c0.1,0.3-0.1,0.2-0.2,0.3C80.4,174.5,80.5,174.8,80.8,174.8 M80.9,176.5l-0.3,0.1
				c0,0.1,0,0.2,0,0.3C80.8,176.8,81,176.8,80.9,176.5 M82.4,165.9c-0.3,0-0.2,0.2-0.4,0.2C82,166.5,82.6,166.2,82.4,165.9
				 M82.5,171.8c0,2.2,1.2,5.9,2.6,5.9c0.9-0.9,0.4-2.8,1-3.9l-0.2-0.9c0.5-1.8,0.8-3.7,0.5-5.9c-1.6-0.6-3.1,1.5-3.5,2.4
				C82.7,169.8,82.4,171,82.5,171.8 M85.7,188.2c0.1,0,0.2,0,0.3,0c0.1-0.2,0.2-0.4,0-0.5C85.8,187.8,85.7,187.9,85.7,188.2
				 M85.9,186c0,0.2-0.1,0.2,0,0.4c0.2,0.1,0.4,0.2,0.4-0.1C86,186.3,86.2,185.9,85.9,186 M86.3,178.9c0.2,0,0.4,0,0.5-0.1
				c-0.1-0.3-0.2-0.6-0.6-0.4C86.1,178.7,86.3,178.7,86.3,178.9 M86.9,177.3c-0.1,0-0.1,0.1-0.2,0.1c-0.2,0.2-0.3,0.4-0.1,0.6
				c0.6,0,0.9-0.6,0.6-1C86.8,177,86.9,177.2,86.9,177.3 M86.9,175.8c-0.2,0.3,0.1,0.7,0.5,0.6c0-0.3,0-0.6-0.2-0.6
				C87.2,175.8,87,175.8,86.9,175.8 M87.5,164.5c0-0.2-0.2-0.3-0.5-0.2C87,164.6,87.2,164.6,87.5,164.5 M88,159.8
				c0.1,0.3,0.4,0.4,0.6,0.2C88.7,159.7,88.3,159.8,88,159.8 M88.3,162.1c0.6,0,0.8-0.3,0.7-0.8C88.5,161.5,88.2,161.6,88.3,162.1
				 M90,168.3c-0.1,0.8-0.6,1.4-0.2,2.5c-0.5,1.2-0.5,2.5-0.6,4c-0.1,1.4-0.6,2.9-0.1,4.2c1.3,0.5,2.8-0.7,3.3-2
				c1.1-2.4,0.1-7.2-1.9-8.8L90,168.3z M89.2,158.5c-0.1,0.1-0.2,0-0.3,0.2c0.3,0.2,0.5-0.1,0.5-0.4
				C89.2,158.2,89.3,158.4,89.2,158.5 M93.4,166c-0.1-0.1-0.3,0-0.3,0.2C93.3,166.2,93.5,166.2,93.4,166 M94.7,178.8
				c-0.2-0.1-0.2-0.3-0.4-0.3c-0.1,0.2-0.1,1,0.3,1C94.6,179.3,94.7,179.1,94.7,178.8 M94.9,177.8c-0.1,0.1-0.1,0.4,0,0.6
				C95.1,178.4,95.3,177.7,94.9,177.8 M95.2,174c0.3,0.6-0.1,1,0.2,1.6C95.9,175.3,95.6,174.2,95.2,174 M95.5,172.6
				c0,0.3-0.1,0.4-0.1,0.7C95.7,173.5,95.9,172.6,95.5,172.6"/>
			<path fill="#FFFFFF" d="M120.6,176c-1,1-2.8,0.6-4.1,1.4c-1.8-0.6-2.7-2.7-4-4.1c-0.8-0.1-1.6-0.1-2.6,0.3c-1,1.3,0.3,3.2,0.5,5
				c-1.1,0.8-3.8,1.5-5.1,1.3c-1.4-3.3-1.7-8-3-12c-0.1-0.4-0.5-0.6-0.6-1c-0.2-0.8-0.1-1.8-0.3-2.6c-0.5-2-1.6-3.5-1.1-5.5
				c0.9-0.8,3.7-1.1,5.7-1.6c3.9-1,7.2-1.4,9.7,0.5c1.3,1,1.8,2.2,3,3.9c0.2,1.9,0.5,3.9,0.1,5.8c-0.7,1.1-1.3,2-1.8,3.3
				C118,172.7,120,173.4,120.6,176 M102.6,160.4c-0.3,0.1-0.6,0.1-0.5,0.4C102.4,161,102.7,160.7,102.6,160.4 M102.3,162l0.4-0.1
				l-0.1-0.3l-0.4,0.1L102.3,162z M103.2,163c0,0-0.1,0.2-0.1,0.4c-0.1,0.1-0.2,0.2-0.1,0.5c0.2,0.1,0.3-0.1,0.5-0.1
				c0.1-0.2,0.1-0.3,0.1-0.4c0.1-0.2,0-1-0.3-1c0.1,0.2,0,0.4-0.1,0.4c-0.1-0.3-0.4,0-0.4-0.3l-0.2,0.1c0.1,0.2-0.2,0.2,0,0.4
				C102.7,163,103.1,162.8,103.2,163 M103.4,160.3l-0.2,0.1c0.1,0.3-0.1,0.2,0,0.5C103.4,160.8,103.5,160.7,103.4,160.3
				 M103.2,165.3c0.4,0,0.5-0.2,0.3-0.4l-0.4,0.1L103.2,165.3z M104.1,167.7c-0.3,0-0.4,0.2-0.6,0.2
				C103.6,168.3,104.4,168.1,104.1,167.7 M104.3,165.9c-0.1-0.4-0.2-0.6-0.4-0.5c0,0.3-0.5,0.6-0.2,0.8
				C104,166.3,104.2,166.1,104.3,165.9 M103.8,166.7c-0.1,0.1-0.1,0.6,0.2,0.4C104.1,167.1,104,166.5,103.8,166.7 M105.1,167.6
				l-0.1-0.4c-0.3,0-0.4,0.1-0.3,0.4C104.8,167.5,104.8,167.7,105.1,167.6 M105.7,172.1c-0.3,0-0.2,0.1-0.3,0.3
				c-0.1,0.1-0.2,0-0.2,0.1c0.1,0.3,0.1,0.5,0.4,0.4c0-0.1,0-0.3,0-0.4c0.3,0,0.2-0.3,0.4-0.4c-0.1-0.5-0.3-0.7-0.6-0.8
				c-0.1,0.2-0.3,0.3-0.1,0.7C105.4,171.9,105.6,171.8,105.7,172.1 M105.6,174.4c0,0.5,0.3,0.8,0.8,0.7
				C106.3,174.7,106,174.5,105.6,174.4 M106.3,172.8c-0.1,0-0.2-0.1-0.3-0.1c0.1,0.1,0.1,0.3,0,0.4
				C106.2,173,106.3,172.9,106.3,172.8 M107.2,176c-0.1-0.8-0.8-0.4-0.6,0.2C106.8,176,106.9,176.1,107.2,176 M112.7,162.2
				c-1.1-1.3-4-1.2-6.1,0.2c0.1,1.8,0.8,4.6,1.6,6.2c1.6,0.3,4.1-0.6,5-1.8C114,165.8,113.5,163.3,112.7,162.2 M107.3,177.3
				c0.1,0.3,0.3,0.2,0.5,0.2C107.8,177.2,107.6,177.3,107.3,177.3 M107.9,176.1c-0.3,0-0.4,0.1-0.3,0.3
				C107.8,176.4,107.9,176.3,107.9,176.1 M113.8,169.5c0-0.2-0.1-0.4-0.4-0.5C113.2,169.3,113.5,169.4,113.8,169.5 M114.7,168.7
				c-0.4-0.2-0.6,0-0.8-0.3c-0.4,0.5,0.4,0.3,0.5,0.6C114.5,169.1,114.6,168.9,114.7,168.7 M114.4,171.6c-0.2,0.2-0.4,0-0.5,0.3
				c0,0,0.1,0.1,0.1,0.2C114.3,172.2,114.7,171.8,114.4,171.6 M114.3,169.8c0.1-0.1,0.1-0.2,0.1-0.2c-0.2-0.1-0.3-0.2-0.4-0.2
				C114.1,169.5,114,169.7,114.3,169.8 M114.4,162c-0.2-0.1-0.4,0.3-0.1,0.3C114.3,162.2,114.6,162.2,114.4,162 M114.4,173
				c0.2,0.4,0.6,0.6,1,0.2C115.1,172.8,114.8,172.8,114.4,173 M115,168.5l0.1-0.4c-0.2-0.2-0.4-0.2-0.7-0.2
				C114.5,168.2,114.8,168.3,115,168.5 M115.4,172.2c-0.1,0.1-0.2,0-0.3,0c0,0.1,0,0.2-0.1,0.3C115.2,172.5,115.4,172.5,115.4,172.2
				 M115.4,166.4c0-0.1,0-0.2,0-0.3c-0.2,0-0.2,0.2-0.4,0.2C115,166.6,115.3,166.4,115.4,166.4 M116.2,166.8
				c-0.5-0.1-0.6,0.3-0.9,0.5C115.8,167.4,116.1,167.3,116.2,166.8 M115.6,168c0.1-0.1,0-0.2,0-0.3c-0.1,0-0.2,0-0.2,0
				C115.3,167.8,115.4,167.9,115.6,168 M115.7,166.8c0-0.1,0-0.2,0.1-0.4C115.4,166.3,115.4,166.7,115.7,166.8 M115.9,166.2
				c0.2,0,0.2-0.4,0.3-0.6c-0.2-0.2-0.4,0.2-0.4-0.1C115.4,165.7,115.9,166,115.9,166.2 M116.5,174.1c-0.5-0.6-0.9,0.1-0.5,0.5
				C116.1,174.3,116.3,174.3,116.5,174.1 M116.6,173.1c0.1-0.2-0.1-0.3-0.2-0.3c-0.2,0.2-0.1,0.1-0.1,0.4c0,0,0.1,0.1,0.2,0.1
				C116.4,173.1,116.5,173.1,116.6,173.1 M117.1,173.9c-0.2,0.1-0.3,0.3-0.1,0.4C117.2,174.2,117.3,174,117.1,173.9 M117.3,175.2
				c0.2,0.2,0.3,0,0.5-0.1C117.6,174.9,117.5,175,117.3,175.2"/>
			<path fill="#FFFFFF" d="M135.6,158.1c-0.2-0.7-0.2-1.6-0.4-2.4c-0.4-1.5-1.5-3.5-1.2-5.5c1-0.9,3.5-1.1,4.8-1.2
				c1.5,2.9,1.8,6.3,2.6,9.8c0.9,3.6,2.5,7.4,2.6,11.1c-1,1.3-2.4,0.8-4,1.5c-2.1-0.7-3.4-2.7-5-4.2c-0.8-0.7-1.7-1.4-2.5-2.2
				c-0.8-0.7-1.5-1.7-2.5-2c-0.9,0.8,0,2,0.2,2.9c0.6,2.4,1.5,5.1,1.5,7.4c-1.3,0.7-3.4,0.9-4.5,1.1c-0.4-0.3-0.5-0.9-0.9-1.1
				c0.1-1.6-0.8-3.7-1.3-5.8s-0.9-4.3-1.4-6.2c-0.2-0.5-0.6-1-0.7-1.5c-0.1-0.3,0.1-0.7,0-1.1c-0.3-2-1.6-3.9-1.2-5.3
				c0-0.1,0.2-0.3,0.4-0.4c1.8,0,2.9-1.1,4.3-0.8c0.8,0.2,1.9,1.4,2.7,2.1c0.9,0.8,1.5,1.8,2.5,2.2c1.1,1.6,2.3,2.9,3.9,3.6
				C136.3,159.7,135.8,158.9,135.6,158.1 M125.3,159.7c-0.1,0.2-0.2,0.3-0.2,0.3c-0.1,0.1,0.1,0.2,0.1,0.2c0.1,0.1,0.3,0.4,0.5,0.3
				c0,0.2,0.1,0.3,0.2,0.4c-0.1,0.4-0.5,0.5-0.3,1.1c0.1,0,0.2-0.1,0.3-0.1l0.1,0.1c0.2,0,0.3-0.6,0.4-0.8c0.1-0.1,0.1-0.1,0.1-0.2
				c0-0.3-0.2-0.2-0.5-0.2c0-0.2-0.2-0.3-0.3-0.3c0-0.1,0.1-0.3,0.2-0.3C125.8,160.1,125.3,160.2,125.3,159.7 M125.2,158.7
				c-0.3,0.1,0,0.6,0.2,0.7c0.1,0.1,0.2,0,0.2,0.1c0.2-0.2-0.1-0.5-0.1-0.7C125.4,158.7,125.2,158.8,125.2,158.7 M125.4,157.3
				c-0.1,0-0.3,0-0.3,0.2S125.7,157.5,125.4,157.3 M125.3,162.3c-0.4,0.3,0.2,0.5,0.3,0.8c0.6-0.1,1,0.2,1.4-0.2
				C126.7,162.2,125.6,163,125.3,162.3 M126.8,166.6c0,0,0,0.2,0.1,0.2h0.1h0.1c0,0,0.2,0.3,0.4,0.1
				C127.3,166.6,127.1,166.6,126.8,166.6 M127.2,165.3c-0.7,0-0.3,1,0.2,0.7C127.4,165.6,127.2,165.6,127.2,165.3 M127.1,168.2
				c0.2,0.2,0.3,0.3,0.4,0.5C128.1,168.6,127.5,168.1,127.1,168.2 M127.8,169.4c-0.3,0.1-0.1,0.6,0.3,0.4
				C128,169.6,127.8,169.6,127.8,169.4 M128.1,167.6c-0.1,0.1-0.1,0.1-0.2,0.1c0,0.3,0.2,0.1,0.3,0.3
				C128.4,168,128.2,167.7,128.1,167.6 M128.3,170.8c-0.2,0.2-0.1,0.8,0.3,0.6c-0.1-0.3,0.2-0.4,0.1-0.7
				C128.6,170.8,128.3,171,128.3,170.8 M136.5,154.5c0.2,0.3,0.4,0.4,0.5,0.7C137.4,154.9,136.9,154.4,136.5,154.5 M136.9,156.5
				l-0.2,0.1c0.1,0.1,0,0.5,0.2,0.4C137.1,157,136.9,156.6,136.9,156.5 M137.2,153.9c0.1,0.1,0.2,0.2,0.5,0.2c0-0.2,0.1-0.2,0-0.4
				C137.5,153.6,137.3,153.8,137.2,153.9 M137.7,158.2l-0.3,0.1c0.2,0.1,0,0.9,0.5,0.7L137.7,158.2z M137.6,156.6
				c-0.3,0.1,0.1,0.5-0.2,0.6c0.1,0.2,0.5,0,0.5-0.1C137.9,156.7,137.7,156.7,137.6,156.6 M137.5,157.8c0,0.2,0.3,0,0.4,0.1
				C138.2,157.7,137.6,157.5,137.5,157.8 M138,155.6l-0.4,0.1c0.2,0.2,0.3,0.4,0.4,0.4C138.1,156.1,138.1,155.9,138,155.6
				 M138.7,157.9c-0.2,0-0.1,0.1-0.1,0.1c-0.1,0.2-0.2,0.3-0.1,0.6c0.2-0.1,0.4,0,0.4,0.2c0.1,0.2-0.4,0.1-0.5,0.1
				c0.1,0.1,0.2,0.3,0.4,0.2c0,0,0.1,0,0.2,0.2l0.3-0.1c0-0.3,0.2-0.8-0.2-0.7C139,158.1,138.9,158,138.7,157.9 M138.5,159.7
				c0.4,0.2-0.1,0.6,0.2,0.8C139.3,160.5,139,159.4,138.5,159.7 M139.5,161.8c-0.2,0.2-0.3,0.4-0.6,0.5c0,0.3,0.2,0.2,0.2,0.5
				c0.1,0.4-0.3,0.5-0.1,0.9l0.4-0.1c-0.1-0.3-0.2-0.4,0.2-0.4c-0.2-0.4-0.1-0.5-0.3-1c0.3,0.1,0.3,0.5,0.6,0.2
				C139.9,162.1,139.7,162,139.5,161.8 M139.4,164.6l-0.2,0.1c0.1,0.1,0,0.5,0.2,0.4C139.6,165.1,139.4,164.8,139.4,164.6
				 M139.2,159.9c0.2,0.2,0.2,0.8,0.6,0.5c-0.1-0.3,0.1-0.3-0.1-0.6C139.5,159.9,139.4,159.7,139.2,159.9 M140.4,164.5
				c-0.1,0.2-0.4,0.2-0.2,0.5C140.4,164.9,140.3,164.7,140.4,164.5 M140.5,167.7c-0.5,0.1-0.2,0.5,0.1,0.4L140.5,167.7z"/>
			<path fill="#FFFFFF" d="M161.9,147.9c-1.8,0.8-3.6,1.3-6,1.9c-1,0.2-2.1,0.2-2.7,0.5c-1.1,0.7-1.3,2.4-0.1,3.7
				c1.9,0.2,5-1.6,7.1-1.3c0.9,1,0.9,3,1.2,4c-1.7,1.6-5.9,1.1-7.2,2.8c0,0.8,0.4,1.7,0.8,2.4c0.7,0.1,1.6,0.3,2.6,0
				c0.4-0.1,0.7-0.5,1.2-0.7c1-0.2,2.2-0.2,3.4-0.5c1.4-0.4,2.2-1.1,3-0.4c0.9,0.6,0.9,2.7,1.1,4.2c-0.8,1-2.3,0.8-3.5,1.1
				c-0.6,0.2-1.2,0.6-1.8,0.8c-1.8,0.5-3.8,0.5-5.6,1.1c-1.6,0.5-3.1,1.6-4.6,0.8c-1.3-6.9-3.9-13.7-4.9-20.8
				c0.1-0.3,0.2-0.5,0.4-0.6c5-0.9,9.7-2.8,14.6-3.5C161.8,144.2,162,146.7,161.9,147.9 M149.3,150.2c-0.1,0.1-0.1,0.1-0.3,0.1
				c0.2,0.3-0.2,0.4,0,0.7C149.4,150.7,149.6,150.5,149.3,150.2 M149.2,149.4c0.2,0,0.4,0.1,0.6,0c-0.1-0.3-0.2-0.5-0.4-0.7
				c-0.2,0.2,0,0.3-0.2,0.4C149.3,149.3,149.2,149.3,149.2,149.4 M149.8,151.1c-0.1,0.1-0.3,0.2-0.4,0.3c0.1,0.3,0.3,0.4,0.5,0.5
				C149.7,151.7,150.1,151.5,149.8,151.1 M150,153.1c-0.4-0.2-0.7,0.2-0.5,0.6C149.9,153.5,150.2,153.3,150,153.1 M150.2,155.2
				c0.3,0,0.3-0.3,0.5-0.5c0.2,0.2,0.3,0.1,0.4,0.5c0.7-0.5-0.2-1-0.5-1.2c-0.1,0.1-0.2,0.1-0.3,0.2
				C150.4,154.6,149.9,154.9,150.2,155.2 M150.9,156.1c0,0.1,0.1,0.3,0.2,0.1c0-0.4-0.6-0.1-0.9-0.2c0.1,0.1,0.1,0.2,0.3,0.4
				C150.6,156.3,150.6,156.1,150.9,156.1 M151.1,148.6c-0.1-0.1-0.1-0.1-0.2-0.2c-0.1,0.2-0.4,0.4-0.2,0.5
				C150.8,148.8,150.9,148.6,151.1,148.6 M151,158.1c-0.1,0-0.2-0.1-0.3,0.1c0.1,0.3,0.3,0.1,0.5,0.2c-0.2,0.2,0.2,0.3,0.1,0.3
				c-0.1,0.2-0.3,0.1-0.5,0.2c0.3,0.5,0.8,0.1,1.2,0c-0.2-0.1,0.1-0.2-0.1-0.5c0.1,0,0.1-0.1,0.1-0.1c-0.1,0-0.2,0.1-0.3,0
				c0.1-0.2-0.1-0.2-0.2-0.3c-0.1-0.3,0-0.5-0.1-0.7c-0.2,0.1-0.5,0-0.6,0.2c0.2,0,0.3,0.1,0.3,0.2C151.1,157.9,151.1,158,151,158.1
				 M151.1,156.3c0.1,0.1,0.1,0.4,0.3,0.2C151.3,156.4,151.2,156.3,151.1,156.3 M151.7,160.2c-0.1,0.1-0.1,0-0.2,0.2
				c0.2,0.2,0.3,0.4,0.5,0.3C151.9,160.6,151.8,160.4,151.7,160.2 M152,157.3c-0.1,0.1-0.3-0.1-0.4,0.1c0.1,0.2,0.2,0.3,0.4,0.3
				C151.9,157.5,152,157.5,152,157.3 M151.9,156.6c0.1,0.1,0.2,0.3,0.3,0.1c-0.1-0.3-0.4-0.4-0.7-0.2
				C151.6,156.7,151.8,156.6,151.9,156.6 M152.3,162.2c0-0.2,0.2-0.4,0.1-0.6c-0.3,0-0.5,0.1-0.7,0.3c0.1,0.3,0.3,0.1,0.3,0.2
				C152.1,162.1,152.2,162.2,152.3,162.2 M152.2,165.2c0.1-0.1,0.3-0.2,0.1-0.3c-0.3,0.1-0.5,0.3-0.3,0.6
				C152.3,165.5,152.2,165.3,152.2,165.2 M153.6,165.3c-0.3,0-0.4-0.3-0.7-0.1c0.1,0.4,0.1,0.7,0.2,1.1
				C153.6,166.2,153.6,165.8,153.6,165.3 M155.1,165.9c0-0.2,0.2-0.4,0-0.6c-0.3,0.2-0.6,0.2-0.9,0.4
				C154.3,166.1,154.7,166,155.1,165.9 M156.3,155.8c0-0.1-0.1-0.2-0.2-0.3c-0.3,0-0.5,0.3-0.4,0.5
				C156,156.1,156.2,155.9,156.3,155.8 M157.1,155.1c-0.1-0.1-0.4,0.1-0.3,0.3C156.9,155.5,157.3,155.4,157.1,155.1"/>
			<path fill="#FFFFFF" d="M184.5,142c0.1,0.5,0.5,0.9,0.7,1.3c0.3,0.9,0.1,1.9,0.8,2.4c0.6,4.8,2.4,8.5,2.7,12.7
				c-0.9,1-3.2,1.1-4.8,1.4c-1.2-2.1-1.2-4.3-2.1-6.9c-1.5-0.6-4,0.8-6,1c-0.5,2.2,1.4,5.5,1.1,7.7c-1.2,1-2.6,0.7-4.5,1.3
				c-2.2-2.2-1.7-7.2-3.4-10.2c-0.1-2.9-2.5-7.9-2.1-10.9c1.5-0.7,3.3-1,4.6-1.2c1.4,2.3,1.2,6.2,2.7,8.2c1.8,0.1,3.8-0.6,5.6-1.4
				c0.7-2.3-1.1-5.8-1.4-8.4c1-1.1,3.3-1.3,4.9-1.6C184.6,138.6,184.1,140.5,184.5,142 M168.6,145l-0.4,0.1c0.1,0.3,0.2,0.6,0.6,0.4
				L168.6,145z M168.8,146.5c0-0.2-0.1-0.3-0.2-0.3c0,0.1-0.1,0.2,0,0.4L168.8,146.5z M168.6,143.9c0.3,0.3,0.7,0.2,1.2,0.2
				c0.2-0.2,0.4-0.3,0.3-0.6c-0.4,0.1-0.7,0.1-0.9-0.1c0.1,0,0-0.2,0.1-0.3c0.1,0,0.1-0.2,0.3-0.2c-0.1-0.4-0.4-0.3-0.8-0.1
				C168.7,143.2,168.6,143.5,168.6,143.9 M169.7,145c0.1-0.1,0.4-0.1,0.2-0.3c-0.3,0.1-0.6,0-0.9,0.1c0.1,0.4,0.3,0.5,0.4,0.6
				C169.7,145.4,169.7,145.1,169.7,145 M169.8,146.7c0.5,0,0.6-0.4,0.3-0.8c-0.3,0.1-0.5-0.1-0.6,0.2
				C169.6,146.4,169.8,146.4,169.8,146.7 M170.5,145.5c0.4,0,0.3-0.6,0.1-0.6c-0.1,0.2-0.2,0.1-0.1,0.4V145.5z M171.1,148.2
				c0-0.2-0.1-0.2-0.4-0.1c0.1,0.1,0,0.2,0,0.4C171,148.4,170.8,148.2,171.1,148.2 M170.8,149.8c0,0.2,0.2,0.1,0.2,0.4
				C171.4,150.1,171,149.7,170.8,149.8 M172.7,152l-0.5,0.1c0.1,0.3,0.1,0.5,0.3,0.4C172.6,152.4,172.7,152.3,172.7,152 M173,159.4
				c-0.1-0.3-0.3-0.3-0.4-0.3c0.2,0.2-0.1,0.3,0,0.4L173,159.4z M173.6,151.7l-0.1-0.4l-0.6,0.2c0,0.2,0.2,0.1,0.2,0.4L173.6,151.7z
				 M173.6,160.2l-0.5,0.1c0.1,0.3,0.3,0.3,0.5,0.3C173.7,160.5,173.7,160.3,173.6,160.2 M173.2,152.8c0.3-0.1,0.7-0.1,0.6-0.3
				c-0.1-0.1-0.2-0.3-0.5-0.2C173.3,152.4,173,152.5,173.2,152.8 M176.6,151c-0.1-0.4-0.4-0.7-0.9-0.5c0.1,0.5,0.5,0.2,0.4,0.6
				L176.6,151z M176.7,151.6c-0.3,0.1-0.4,0.1-0.5,0.2C176.3,152.3,176.9,152,176.7,151.6 M177,150.5c0,0.3,0.4,0.5,0.4,0.2
				C177.2,150.7,177.2,150.4,177,150.5 M178.4,151.1c-0.4,0.2-1.1,0.3-1.1,0.6C177.8,152.1,178.4,151.7,178.4,151.1 M182.2,144.3
				c-0.4-0.2-0.7,0.2-0.5,0.6C182,144.7,182.4,144.6,182.2,144.3 M182.3,146.5c0.3,0,0.3-0.3,0.5-0.5c0.2,0.2,0.3,0.1,0.4,0.5
				c0.7-0.5-0.2-1-0.5-1.2c-0.1,0.1-0.2,0.1-0.3,0.2C182.6,145.8,182,146.1,182.3,146.5 M183,147.3c0,0.1,0.1,0.3,0.2,0.1
				c0-0.4-0.6-0.1-0.9-0.2c0.1,0.1,0.1,0.2,0.3,0.4C182.8,147.5,182.7,147.4,183,147.3 M183.2,149.4c-0.1,0-0.2-0.1-0.3,0.1
				c0.1,0.3,0.3,0.1,0.5,0.2c-0.2,0.2,0.2,0.3,0.1,0.3c-0.1,0.2-0.3,0.1-0.5,0.2c0.3,0.5,0.8,0.1,1.2,0c-0.2-0.1,0.1-0.2-0.1-0.5
				c0.1,0,0.1-0.1,0.1-0.1c-0.1,0-0.2,0.1-0.3,0c0.1-0.2-0.1-0.2-0.2-0.3c-0.1-0.3,0-0.5-0.1-0.7c-0.2,0.1-0.5,0-0.6,0.2
				c0.2,0,0.3,0.1,0.3,0.2C183.2,149.2,183.2,149.3,183.2,149.4 M183.2,147.6c0.1,0.1,0.1,0.4,0.3,0.2
				C183.4,147.6,183.3,147.6,183.2,147.6 M183.8,151.4c-0.1,0.1-0.1,0-0.2,0.2c0.2,0.2,0.3,0.4,0.5,0.3
				C184.1,151.8,183.9,151.6,183.8,151.4 M184.1,148.6c-0.1,0.1-0.3-0.1-0.4,0.1c0.1,0.2,0.2,0.3,0.4,0.3
				C184.1,148.8,184.1,148.7,184.1,148.6 M184.1,147.8c0.1,0.1,0.2,0.3,0.3,0.1c-0.1-0.3-0.4-0.4-0.7-0.2
				C183.7,148,184,147.9,184.1,147.8 M184.5,153.4c0-0.2,0.2-0.4,0.1-0.6c-0.3,0-0.5,0.1-0.7,0.3c0.1,0.3,0.3,0.1,0.3,0.2
				C184.3,153.4,184.4,153.5,184.5,153.4"/>
			<path fill="#FFFFFF" d="M204.1,132.8c0.5,1.1,1.9,1.3,3,1.9c1.5,1.4,2.6,3.2,3.8,5.2c0.5,2.9,1.1,5.2,0.7,7.8
				c-0.8,4.5-3.8,7.1-9.7,8.6c-0.6,1.5-0.3,3.5-1.3,4.8c-1,0.1-2,0.5-2.8,0.2c-0.6-1.8,0.9-3.4,0.4-5c-0.3-1.3-1.7-1.2-2.6-1.8
				c-1.1-0.7-1.5-1.9-2.6-2.3c-1.8-3.8-2.8-7.4-2.5-10.4c0-0.6,0.4-1.2,0.6-1.8c0.4-1.5,0.6-2.4,1.7-3.6c1.1-1.1,3.1-2.4,5.3-3.2
				c0.7-0.2,1.4-0.1,2-0.5c1.3-1,0.7-3.4,1-4.7c0.9-0.5,2.2-1,3.2-0.6C205.3,128.8,203.4,131.2,204.1,132.8 M192,141.7
				c0.1,0.2,0.2,0.1,0.3,0.4c0,0-0.1,0.1,0,0.2c-0.3,0-0.3,0.2-0.5,0.3l0.1,0.5c0,0,0.1,0,0.1,0.1c0.1,0,0.2-0.1,0.3,0
				c0,0.2,0.2,0.1,0.2,0.2c0.2,0.4-0.2,0.5,0.1,0.9c0.1,0.1,0.6,0,0.6-0.2c-0.3-0.5,0.1-0.7,0.1-1.1c-0.2,0-0.3-0.1-0.4-0.2
				c-0.3,0.1-0.5,0-0.6,0c0-0.1,0.1-0.1,0.1-0.2c0-0.1,0-0.2,0-0.3c0.1-0.2,0.3-0.2,0.3-0.4c-0.1,0-0.1-0.1-0.1-0.2
				c-0.1-0.1-0.1,0-0.2-0.2c0.1-0.2,0.4-0.2,0.2-0.5c-0.1,0-0.1-0.1-0.3,0C192.2,141.3,191.9,141.4,192,141.7 M192.2,140.1l0.1,0.1
				c0,0-0.2,0.1-0.1,0.2c0.3,0,0.6,0.5,0.8,0.2c0-0.4-0.3-0.3-0.5-0.4c0.3-0.1,0-0.2-0.1-0.3c0.1-0.1,0.3,0,0.2-0.3
				c-0.2,0-0.3-0.1-0.5,0C192.3,139.9,192.1,140,192.2,140.1L192.2,140.1 M193.2,144.7c-0.3,0.2-0.7,0.3-0.5,0.8
				C193.2,145.4,193.3,145.1,193.2,144.7 M193.4,146.5c-0.1,0-0.1-0.1-0.3-0.1c0,0.3,0,0.6,0.1,1
				C193.7,147.4,193.6,146.8,193.4,146.5 M194.1,146c0.3-0.1,0.2-1-0.2-0.9c0.1,0.3-0.1,0.2-0.2,0.3
				C193.7,145.8,193.8,146.1,194.1,146 M194.3,147.8l-0.3,0.1c0,0.1,0,0.2,0,0.3C194.1,148.1,194.3,148.1,194.3,147.8 M195.8,137.2
				c-0.3,0-0.2,0.2-0.4,0.2C195.4,137.7,195.9,137.4,195.8,137.2 M195.8,143c0,2.2,1.2,5.9,2.6,5.9c0.9-0.9,0.4-2.8,1-3.9l-0.2-0.9
				c0.5-1.8,0.8-3.7,0.5-5.9c-1.6-0.6-3.1,1.5-3.5,2.4C196,141.1,195.8,142.3,195.8,143 M199.1,159.5c0.1,0,0.2,0,0.3,0
				c0.1-0.2,0.2-0.4,0-0.5C199.1,159,199,159.2,199.1,159.5 M199.2,157.2c0,0.2-0.1,0.2,0,0.4c0.2,0.1,0.4,0.2,0.4-0.1
				C199.3,157.5,199.5,157.1,199.2,157.2 M199.6,150.2c0.2,0,0.4,0,0.5-0.1c-0.1-0.3-0.2-0.6-0.6-0.4
				C199.5,150,199.6,150,199.6,150.2 M200.2,148.5c-0.1,0-0.1,0.1-0.2,0.1c-0.2,0.2-0.3,0.4-0.1,0.6c0.6,0,0.9-0.6,0.6-1
				C200.2,148.2,200.2,148.4,200.2,148.5 M200.3,147.1c-0.2,0.3,0.1,0.7,0.5,0.6c0-0.3,0-0.6-0.2-0.6
				C200.5,147,200.4,147,200.3,147.1 M200.8,135.8c0-0.2-0.2-0.3-0.5-0.2C200.3,135.9,200.6,135.9,200.8,135.8 M201.3,131.1
				c0.1,0.3,0.4,0.4,0.6,0.2C202,130.9,201.7,131,201.3,131.1 M201.6,133.4c0.6,0,0.8-0.3,0.7-0.8
				C201.9,132.7,201.6,132.9,201.6,133.4 M203.4,139.6c-0.1,0.8-0.6,1.4-0.2,2.5c-0.5,1.2-0.5,2.5-0.6,4c-0.1,1.4-0.6,2.9-0.1,4.2
				c1.3,0.5,2.8-0.7,3.3-2c1.1-2.4,0.1-7.2-1.9-8.8L203.4,139.6z M202.6,129.8c-0.1,0.1-0.2,0-0.3,0.2c0.3,0.2,0.5-0.1,0.5-0.4
				C202.6,129.5,202.7,129.6,202.6,129.8 M206.8,137.3c-0.1-0.1-0.3,0-0.3,0.2C206.7,137.5,206.9,137.5,206.8,137.3 M208.1,150.1
				c-0.2-0.1-0.2-0.3-0.4-0.3c-0.1,0.2-0.1,1,0.3,1C207.9,150.5,208.1,150.4,208.1,150.1 M208.3,149.1c-0.1,0.1-0.1,0.4,0,0.6
				C208.5,149.7,208.7,149,208.3,149.1 M208.5,145.3c0.3,0.6-0.1,1,0.2,1.6C209.2,146.6,209,145.5,208.5,145.3 M208.8,143.8
				c0,0.3-0.1,0.4-0.1,0.7C209.1,144.7,209.2,143.9,208.8,143.8"/>
			<path fill="#FFFFFF" d="M218.9,143.9c1.4,0.4,1.9,2.2,3.5,2.3c5.1-0.4,3.6-5.9,2.5-10.4c-0.2-0.8-0.6-2.2-0.8-2.4
				c-1.4-1.6-3.9,0.8-5.7,0.3c-0.6-1.3-1.1-3.3-0.8-4.6c2.1-0.7,4.4-1.2,6.9-1.9c1.3-0.3,2.1-0.8,2.9-0.6c1.6,0.7,1.6,4.3,2,6.1
				c0.3,1.1,0.8,2.3,1.1,3.5c0.3,1.3,0.8,2.6,0.9,3.7c0,0.5-0.2,1-0.2,1.7c-0.1,1.9,0,3.5-0.7,5c-1.3,2.3-4.5,3.8-7,4.3
				c-1.6,0.3-4.6,0-6.4-1.2c-1.3-0.8-2.3-2.1-2.5-4.7C215.9,144.2,217.6,143.6,218.9,143.9 M220.3,149l-0.1-0.5
				c-0.2,0-0.3,0.1-0.4,0.2C219.7,149.1,220,149,220.3,149 M220.9,149.3l-0.1-0.5l-0.3,0.1c0.1,0.2-0.1,0.3,0,0.4
				C220.6,149.2,220.6,149.4,220.9,149.3 M221.5,148.1c-0.3,0.1-0.4,0.3-0.4,0.7C221.6,148.7,221.3,148.3,221.5,148.1 M222.5,148.9
				c-0.1-0.3-0.1-0.5-0.3-0.4c0,0.4-0.8,0.3-0.7,0.9C222,149.2,222.3,149.1,222.5,148.9 M223.4,147.3c-0.4,0.1-0.5,0.4-0.3,0.9
				C223.6,148.1,223.5,147.7,223.4,147.3 M224.4,148.1c-0.1-0.3-0.9,0.1-0.6,0.5C224,148.6,224.4,148.5,224.4,148.1 M226,131.8
				c0.1,0,0.2-0.6-0.1-0.5c0,0,0,0.1-0.1,0.1C225.9,131.5,225.8,132,226,131.8 M226.5,132.6c0.1,0.1,0.2,0.2,0.3,0.3
				c0.2,0.2,0.4,0.7,0.7,0.3c-0.5-0.1-0.6-0.6-1-0.8c-0.4,0-0.5,0.3-0.5,0.5C226.2,132.8,226.2,132.6,226.5,132.6 M227.9,134.1
				c-0.6,0.2-0.7-0.5-1.5-0.2c0.1,0.8,0.9,0.5,1.3,0.8C227.8,134.5,228,134.4,227.9,134.1 M227.1,135.7l0.3-0.1
				c-0.1-0.4-0.4-0.6-0.8-0.5c-0.1,0.2,0.3,0.3,0.3,0.4C226.9,135.6,226.8,135.9,227.1,135.7 M227.7,136.1l-0.1,0.1h-0.2
				c0,0-0.1,0.2-0.2,0.2c-0.1,0.1-0.2,0-0.2,0.1s0.1,0.2,0,0.2c0.2,0.3,0.2,0.8,0.5,0.8c0-0.1-0.1-0.2,0.1-0.3
				c0.1,0.2,0.4,0.2,0.7,0.1c0.1,0.2,0.2,0.3,0.4,0.3c0-0.4-0.2-0.6-0.5-0.7c-0.3,0-0.3,0.2-0.5,0.2c-0.2-0.1-0.3-0.1-0.3-0.5
				c0.4-0.2,0.7-0.4,0.8-0.7c-0.2,0-0.1-0.4-0.3-0.2c0,0.1-0.1,0.1-0.2,0.2C227.8,136,227.8,136,227.7,136.1 M227.9,139.3v0.2
				c0,0,0.2-0.1,0.2,0c-0.2,0,0,0.4,0,0.5c0.2,0,0.2,0.4,0.4,0.2c0-0.2,0-0.3,0.1-0.4c-0.1-0.4-0.2-0.8-0.5-0.9
				c0.1-0.3,0.7-0.3,0.6-0.7c-0.7,0.1-1.2,0.4-1.3,0.8C227.6,139,227.8,139.2,227.9,139.3 M228.2,144c-0.3,0-0.4,0.2-0.3,0.6
				C228.2,144.5,228.1,144.2,228.2,144 M228.3,142.7l-0.3,0.1c0,0.3,0,0.6,0.5,0.4L228.3,142.7z M229.2,141.2c-0.1,0-0.1-0.1-0.3,0
				c0.1,0.3-0.1,0.3,0.1,0.6C229.2,141.7,229.2,141.5,229.2,141.2"/>
		</g>
	</g>
	<g>
		<defs>
			<rect id="SVGID_7_" x="-113" y="-23.9" width="509.9" height="362.9"/>
		</defs>
		<clipPath id="SVGID_8_">
			<use xlink:href="#SVGID_7_"  overflow="visible"/>
		</clipPath>
		<g id="lys" clip-path="url(#SVGID_8_)">
			<path fill="#72BF44" d="M145.1,236.7c0,16.4-13.3,29.6-29.6,29.6S85.9,253,85.9,236.7s13.3-29.6,29.6-29.6
				S145.1,220.3,145.1,236.7"/>
			
				<ellipse transform="matrix(9.853758e-02 -0.9951 0.9951 9.853758e-02 -131.4291 328.3141)" fill="none" stroke="#FFFFFF" stroke-width="4.575" stroke-miterlimit="10" cx="115.5" cy="236.7" rx="29.6" ry="29.6"/>
			<path d="M115.5,215.7c-6.6,0-12.9,5.1-12.9,12.3c0,9.3,7,11.3,7,17.8h11.8c0-6.5,7-8.5,7-17.8C128.4,220.8,122,215.7,115.5,215.7
				 M113.3,219.9c0.1,0.5-0.2,1-0.7,1.2c-2.6,1-4.6,3.3-5.1,6.1c-0.1,0.6-0.7,1-1.3,0.9c-0.6-0.1-1-0.7-0.9-1.3
				c0.6-3.6,3.1-6.5,6.4-7.7C112.5,218.8,113.2,219.3,113.3,219.9 M109.6,250.1h11.8V248h-11.8V250.1z M109.6,252.3
				c0,1.2,1,2.2,2.1,2.2h7.5c1.1,0,2.1-0.9,2.1-2.2H109.6z M113.3,255.5c0,1.2,1,2.1,2.1,2.1s2.1-1,2.1-2.1H113.3z"/>
		</g>
	</g>
	<g>
		<defs>
			<rect id="SVGID_9_" x="-113" y="-23.9" width="509.9" height="362.9"/>
		</defs>
		<clipPath id="SVGID_10_">
			<use xlink:href="#SVGID_9_"  overflow="visible"/>
		</clipPath>
		<g id="varme" clip-path="url(#SVGID_10_)">
			<path fill="#FFF450" d="M131.5,58.4c0,26.8-21.7,48.5-48.5,48.5S34.5,85.2,34.5,58.4S56.2,9.8,83,9.8S131.5,31.6,131.5,58.4"/>
			<path fill="none" stroke="#FFFFFF" stroke-width="4.802" stroke-miterlimit="10" d="M131.5,58.4c0,26.8-21.7,48.5-48.5,48.5
				S34.5,85.2,34.5,58.4S56.2,9.8,83,9.8S131.5,31.6,131.5,58.4z"/>
			<path d="M117.4,76.2c0.9-1.7-4.6-6-4-7.7c0.6-1.8,7.5-2,7.8-3.8c0.3-1.8-6.2-4.3-6.2-6.1c0-1.9,6.6-4.2,6.3-6
				c-0.3-1.8-7.2-2.1-7.8-3.9c-0.6-1.8,4.9-6,4.1-7.6c-0.8-1.7-7.5,0.2-8.6-1.3s2.9-7.2,1.6-8.5s-7.1,2.5-8.6,1.4
				c-1.5-1.1,0.5-7.7-1.2-8.6s-6,4.6-7.7,4c-1.8-0.6-2-7.5-3.8-7.8c-1.8-0.3-4.3,6.2-6.1,6.2c-1.9,0-4.2-6.5-6-6.3
				c-1.8,0.3-2.1,7.2-3.9,7.8c-1.8,0.6-6-4.9-7.6-4.1c-1.7,0.8,0.2,7.5-1.3,8.6c-1.5,1.1-7.2-2.9-8.5-1.6c-1.3,1.3,2.5,7.1,1.4,8.6
				s-7.7-0.5-8.6,1.2c-0.9,1.7,4.6,6,4,7.7c-0.6,1.8-7.5,2-7.8,3.8s6.2,4.3,6.2,6.1c0,1.9-6.5,4.2-6.3,6c0.3,1.8,7.2,2.1,7.8,3.9
				s-4.9,6-4.1,7.6c0.8,1.7,7.5-0.2,8.6,1.3s-2.9,7.2-1.6,8.5c1.3,1.3,7.1-2.5,8.6-1.4s-0.5,7.7,1.2,8.6s6-4.6,7.7-4
				c1.8,0.6,2,7.5,3.8,7.8s4.3-6.2,6.1-6.2c1.9,0,4.2,6.5,6,6.3c1.8-0.3,2.1-7.2,3.9-7.8c1.8-0.6,6,4.9,7.6,4.1
				c1.7-0.8-0.2-7.5,1.3-8.6s7.2,2.9,8.5,1.6s-2.5-7.1-1.4-8.6C109.8,75.9,116.5,77.9,117.4,76.2 M70.5,82.5
				c-13.4-7-18.5-23.4-11.6-36.7s23.3-18.5,36.7-11.6c13.3,6.9,18.5,23.3,11.6,36.7C100.2,84.2,83.8,89.4,70.5,82.5 M101.5,68
				c-5.3,10.2-17.9,14.1-28,8.8c-10.2-5.3-14.1-17.9-8.8-28c5.3-10.2,17.9-14.1,28-8.8C102.8,45.2,106.8,57.8,101.5,68"/>
		</g>
	</g>
	<g>
		<defs>
			<rect id="SVGID_11_" x="-113" y="-23.9" width="509.9" height="362.9"/>
		</defs>
		<clipPath id="SVGID_12_">
			<use xlink:href="#SVGID_11_"  overflow="visible"/>
		</clipPath>
		<g id="vand_1_" clip-path="url(#SVGID_12_)">
			<path fill="none" stroke="#FFFFFF" stroke-width="4.77" stroke-miterlimit="10" d="M216.6,58.6c0,17.4-14.1,31.5-31.5,31.5
				S153.6,76,153.6,58.6s14.1-31.5,31.5-31.5C202.5,27.1,216.6,41.2,216.6,58.6z"/>
			<g id="vand">
				<path fill="#82D1DD" d="M216.6,58.6c0,17.4-14.1,31.5-31.5,31.5S153.6,76,153.6,58.6s14.1-31.5,31.5-31.5
					C202.5,27.1,216.6,41.2,216.6,58.6"/>
				<path d="M186.5,39.5c-0.7-0.7-1.9-0.7-2.7,0c-3.9,3.7-15.1,15.2-15.1,24.9c0,11.7,8.5,16.3,16.4,16.3s16.4-4.6,16.4-16.3
					C201.5,54.7,190.4,43.2,186.5,39.5 M185.4,75.7c-5.8,0-11.6-4.2-11.6-12.2c0-1.1,0.9-2.1,2.1-2.1s2.1,0.9,2.1,2.1
					c0,5.5,3.9,8.1,7.5,8.1c1.1,0,2.1,0.9,2.1,2.1S186.5,75.7,185.4,75.7"/>
			</g>
		</g>
	</g>
</g>
</svg>
